<svg width="381" height="434" viewBox="0 0 381 434" fill="none" xmlns="http://www.w3.org/2000/svg">
<g filter="url(#filter0_d_0_1)">
<rect width="381" height="434" fill="white"/>
</g>
<path d="M129.888 403V394.6H132.648C133.304 394.6 133.844 394.708 134.268 394.924C134.692 395.14 135.004 395.432 135.204 395.8C135.412 396.168 135.516 396.584 135.516 397.048C135.516 397.504 135.416 397.916 135.216 398.284C135.016 398.652 134.704 398.948 134.28 399.172C133.856 399.388 133.312 399.496 132.648 399.496H130.896V403H129.888ZM130.896 398.644H132.624C133.296 398.644 133.772 398.504 134.052 398.224C134.34 397.936 134.484 397.544 134.484 397.048C134.484 396.544 134.34 396.152 134.052 395.872C133.772 395.584 133.296 395.44 132.624 395.44H130.896V398.644ZM139.138 403.144C138.578 403.144 138.074 403.016 137.626 402.76C137.178 402.504 136.822 402.144 136.558 401.68C136.302 401.208 136.174 400.656 136.174 400.024C136.174 399.392 136.306 398.844 136.57 398.38C136.834 397.908 137.19 397.544 137.638 397.288C138.094 397.032 138.602 396.904 139.162 396.904C139.722 396.904 140.226 397.032 140.674 397.288C141.122 397.544 141.474 397.908 141.73 398.38C141.994 398.844 142.126 399.392 142.126 400.024C142.126 400.656 141.994 401.208 141.73 401.68C141.466 402.144 141.106 402.504 140.65 402.76C140.202 403.016 139.698 403.144 139.138 403.144ZM139.138 402.28C139.482 402.28 139.802 402.196 140.098 402.028C140.394 401.86 140.634 401.608 140.818 401.272C141.002 400.936 141.094 400.52 141.094 400.024C141.094 399.528 141.002 399.112 140.818 398.776C140.642 398.44 140.406 398.188 140.11 398.02C139.814 397.852 139.498 397.768 139.162 397.768C138.818 397.768 138.498 397.852 138.202 398.02C137.906 398.188 137.666 398.44 137.482 398.776C137.298 399.112 137.206 399.528 137.206 400.024C137.206 400.52 137.298 400.936 137.482 401.272C137.666 401.608 137.902 401.86 138.19 402.028C138.486 402.196 138.802 402.28 139.138 402.28ZM144.505 403L142.765 397.048H143.773L145.033 401.716L146.425 397.048H147.565L148.969 401.716L150.217 397.048H151.237L149.497 403H148.465L147.001 398.092L145.537 403H144.505ZM154.805 403.144C154.237 403.144 153.733 403.016 153.293 402.76C152.853 402.496 152.505 402.132 152.249 401.668C152.001 401.204 151.877 400.656 151.877 400.024C151.877 399.4 152.001 398.856 152.249 398.392C152.497 397.92 152.841 397.556 153.281 397.3C153.729 397.036 154.245 396.904 154.829 396.904C155.405 396.904 155.901 397.036 156.317 397.3C156.741 397.556 157.065 397.896 157.289 398.32C157.513 398.744 157.625 399.2 157.625 399.688C157.625 399.776 157.621 399.864 157.613 399.952C157.613 400.04 157.613 400.14 157.613 400.252H152.873C152.897 400.708 153.001 401.088 153.185 401.392C153.377 401.688 153.613 401.912 153.893 402.064C154.181 402.216 154.485 402.292 154.805 402.292C155.221 402.292 155.569 402.196 155.849 402.004C156.129 401.812 156.333 401.552 156.461 401.224H157.457C157.297 401.776 156.989 402.236 156.533 402.604C156.085 402.964 155.509 403.144 154.805 403.144ZM154.805 397.756C154.325 397.756 153.897 397.904 153.521 398.2C153.153 398.488 152.941 398.912 152.885 399.472H156.629C156.605 398.936 156.421 398.516 156.077 398.212C155.733 397.908 155.309 397.756 154.805 397.756ZM158.961 403V397.048H159.873L159.957 398.188C160.141 397.796 160.421 397.484 160.797 397.252C161.173 397.02 161.637 396.904 162.189 396.904V397.96H161.913C161.561 397.96 161.237 398.024 160.941 398.152C160.645 398.272 160.409 398.48 160.233 398.776C160.057 399.072 159.969 399.48 159.969 400V403H158.961ZM165.774 403.144C165.206 403.144 164.702 403.016 164.262 402.76C163.822 402.496 163.474 402.132 163.218 401.668C162.97 401.204 162.846 400.656 162.846 400.024C162.846 399.4 162.97 398.856 163.218 398.392C163.466 397.92 163.81 397.556 164.25 397.3C164.698 397.036 165.214 396.904 165.798 396.904C166.374 396.904 166.87 397.036 167.286 397.3C167.71 397.556 168.034 397.896 168.258 398.32C168.482 398.744 168.594 399.2 168.594 399.688C168.594 399.776 168.59 399.864 168.582 399.952C168.582 400.04 168.582 400.14 168.582 400.252H163.842C163.866 400.708 163.97 401.088 164.154 401.392C164.346 401.688 164.582 401.912 164.862 402.064C165.15 402.216 165.454 402.292 165.774 402.292C166.19 402.292 166.538 402.196 166.818 402.004C167.098 401.812 167.302 401.552 167.43 401.224H168.426C168.266 401.776 167.958 402.236 167.502 402.604C167.054 402.964 166.478 403.144 165.774 403.144ZM165.774 397.756C165.294 397.756 164.866 397.904 164.49 398.2C164.122 398.488 163.91 398.912 163.854 399.472H167.598C167.574 398.936 167.39 398.516 167.046 398.212C166.702 397.908 166.278 397.756 165.774 397.756ZM172.63 403.144C172.038 403.144 171.518 403.008 171.07 402.736C170.63 402.464 170.286 402.092 170.038 401.62C169.798 401.148 169.678 400.612 169.678 400.012C169.678 399.412 169.802 398.88 170.05 398.416C170.298 397.944 170.642 397.576 171.082 397.312C171.522 397.04 172.042 396.904 172.642 396.904C173.13 396.904 173.562 397.004 173.938 397.204C174.314 397.404 174.606 397.684 174.814 398.044V394.36H175.822V403H174.91L174.814 402.016C174.622 402.304 174.346 402.564 173.986 402.796C173.626 403.028 173.174 403.144 172.63 403.144ZM172.738 402.268C173.138 402.268 173.49 402.176 173.794 401.992C174.106 401.8 174.346 401.536 174.514 401.2C174.69 400.864 174.778 400.472 174.778 400.024C174.778 399.576 174.69 399.184 174.514 398.848C174.346 398.512 174.106 398.252 173.794 398.068C173.49 397.876 173.138 397.78 172.738 397.78C172.346 397.78 171.994 397.876 171.682 398.068C171.378 398.252 171.138 398.512 170.962 398.848C170.794 399.184 170.71 399.576 170.71 400.024C170.71 400.472 170.794 400.864 170.962 401.2C171.138 401.536 171.378 401.8 171.682 401.992C171.994 402.176 172.346 402.268 172.738 402.268ZM183.821 403.144C183.333 403.144 182.897 403.044 182.513 402.844C182.137 402.644 181.849 402.364 181.649 402.004L181.553 403H180.641V394.36H181.649V398.032C181.841 397.744 182.113 397.484 182.465 397.252C182.825 397.02 183.281 396.904 183.833 396.904C184.425 396.904 184.941 397.04 185.381 397.312C185.821 397.584 186.161 397.956 186.401 398.428C186.649 398.9 186.773 399.436 186.773 400.036C186.773 400.636 186.649 401.172 186.401 401.644C186.161 402.108 185.817 402.476 185.369 402.748C184.929 403.012 184.413 403.144 183.821 403.144ZM183.713 402.268C184.113 402.268 184.465 402.176 184.769 401.992C185.073 401.8 185.313 401.536 185.489 401.2C185.665 400.864 185.753 400.472 185.753 400.024C185.753 399.576 185.665 399.184 185.489 398.848C185.313 398.512 185.073 398.252 184.769 398.068C184.465 397.876 184.113 397.78 183.713 397.78C183.313 397.78 182.961 397.876 182.657 398.068C182.353 398.252 182.113 398.512 181.937 398.848C181.761 399.184 181.673 399.576 181.673 400.024C181.673 400.472 181.761 400.864 181.937 401.2C182.113 401.536 182.353 401.8 182.657 401.992C182.961 402.176 183.313 402.268 183.713 402.268ZM188.343 405.64L189.819 402.424H189.471L187.107 397.048H188.199L190.167 401.68L192.255 397.048H193.299L189.399 405.64H188.343ZM194.711 403.06C194.511 403.06 194.343 402.996 194.207 402.868C194.079 402.732 194.015 402.568 194.015 402.376C194.015 402.184 194.079 402.024 194.207 401.896C194.343 401.76 194.511 401.692 194.711 401.692C194.903 401.692 195.063 401.76 195.191 401.896C195.327 402.024 195.395 402.184 195.395 402.376C195.395 402.568 195.327 402.732 195.191 402.868C195.063 402.996 194.903 403.06 194.711 403.06ZM194.711 398.272C194.511 398.272 194.343 398.208 194.207 398.08C194.079 397.944 194.015 397.78 194.015 397.588C194.015 397.396 194.079 397.236 194.207 397.108C194.343 396.972 194.511 396.904 194.711 396.904C194.903 396.904 195.063 396.972 195.191 397.108C195.327 397.236 195.395 397.396 195.395 397.588C195.395 397.78 195.327 397.944 195.191 398.08C195.063 398.208 194.903 398.272 194.711 398.272Z" fill="#170F49"/>
<path d="M214.881 398.662C214.881 398.219 215.246 398.049 215.85 398.049C216.715 398.049 217.808 398.31 218.674 398.775V396.108C217.729 395.734 216.795 395.586 215.85 395.586C213.537 395.586 212 396.789 212 398.798C212 401.93 216.328 401.431 216.328 402.781C216.328 403.303 215.872 403.473 215.234 403.473C214.289 403.473 213.082 403.087 212.125 402.565V405.266C213.184 405.72 214.255 405.913 215.234 405.913C217.603 405.913 219.232 404.744 219.232 402.713C219.221 399.331 214.881 399.933 214.881 398.662ZM222.58 393.316L219.801 393.907L219.79 402.997C219.79 404.676 221.054 405.913 222.74 405.913C223.674 405.913 224.357 405.743 224.733 405.539V403.235C224.368 403.383 222.569 403.905 222.569 402.225V398.196H224.733V395.779H222.569L222.58 393.316ZM228.275 396.619L228.093 395.779H225.633V405.709H228.48V398.979C229.152 398.106 230.291 398.264 230.644 398.389V395.779C230.279 395.643 228.947 395.393 228.275 396.619ZM231.338 395.779H234.197V405.709H231.338V395.779ZM231.338 394.917L234.197 394.304V392L231.338 392.601V394.917ZM240.142 395.586C239.026 395.586 238.308 396.108 237.91 396.471L237.762 395.768H235.256V409L238.103 408.399L238.115 405.187C238.525 405.482 239.128 405.902 240.131 405.902C242.169 405.902 244.026 404.268 244.026 400.67C244.014 397.379 242.135 395.586 240.142 395.586ZM239.459 403.405C238.787 403.405 238.388 403.167 238.115 402.872L238.103 398.662C238.399 398.332 238.809 398.106 239.459 398.106C240.495 398.106 241.212 399.263 241.212 400.75C241.212 402.27 240.506 403.405 239.459 403.405ZM253 400.784C253 397.879 251.588 395.586 248.889 395.586C246.178 395.586 244.538 397.879 244.538 400.761C244.538 404.177 246.474 405.902 249.253 405.902C250.608 405.902 251.633 405.595 252.408 405.164V402.895C251.633 403.28 250.745 403.519 249.618 403.519C248.513 403.519 247.533 403.133 247.408 401.794H252.977C252.977 401.646 253 401.056 253 400.784ZM247.374 399.706C247.374 398.423 248.16 397.89 248.877 397.89C249.572 397.89 250.312 398.423 250.312 399.706H247.374Z" fill="#6772E5"/>
<g clip-path="url(#clip0_0_1)">
<rect x="45" y="322" width="291.42" height="52" rx="26" fill="url(#paint0_linear_0_1)"/>
<path d="M180.328 353V343.2H183.954C184.738 343.2 185.387 343.331 185.9 343.592C186.414 343.853 186.796 344.213 187.048 344.67C187.3 345.127 187.426 345.641 187.426 346.21C187.426 346.751 187.305 347.251 187.062 347.708C186.82 348.156 186.442 348.52 185.928 348.8C185.415 349.071 184.757 349.206 183.954 349.206H182.12V353H180.328ZM182.12 347.75H183.842C184.468 347.75 184.916 347.615 185.186 347.344C185.466 347.064 185.606 346.686 185.606 346.21C185.606 345.725 185.466 345.347 185.186 345.076C184.916 344.796 184.468 344.656 183.842 344.656H182.12V347.75ZM190.513 353.168C189.916 353.168 189.426 353.075 189.043 352.888C188.661 352.692 188.376 352.435 188.189 352.118C188.003 351.801 187.909 351.451 187.909 351.068C187.909 350.424 188.161 349.901 188.665 349.5C189.169 349.099 189.925 348.898 190.933 348.898H192.697V348.73C192.697 348.254 192.562 347.904 192.291 347.68C192.021 347.456 191.685 347.344 191.283 347.344C190.919 347.344 190.602 347.433 190.331 347.61C190.061 347.778 189.893 348.03 189.827 348.366H188.077C188.124 347.862 188.292 347.423 188.581 347.05C188.88 346.677 189.263 346.392 189.729 346.196C190.196 345.991 190.719 345.888 191.297 345.888C192.287 345.888 193.066 346.135 193.635 346.63C194.205 347.125 194.489 347.825 194.489 348.73V353H192.963L192.795 351.88C192.59 352.253 192.301 352.561 191.927 352.804C191.563 353.047 191.092 353.168 190.513 353.168ZM190.919 351.768C191.433 351.768 191.829 351.6 192.109 351.264C192.399 350.928 192.581 350.513 192.655 350.018H191.129C190.653 350.018 190.313 350.107 190.107 350.284C189.902 350.452 189.799 350.662 189.799 350.914C189.799 351.185 189.902 351.395 190.107 351.544C190.313 351.693 190.583 351.768 190.919 351.768ZM196.602 356.08L198.212 352.538H197.792L195.09 346.056H197.036L198.982 350.942L201.012 346.056H202.916L198.506 356.08H196.602Z" fill="#F2F2F2"/>
</g>
<path d="M104.389 78.175V76.25C102.756 76.0667 101.464 75.4833 100.514 74.5C99.5642 73.5167 99.0892 72.2667 99.0892 70.75H101.289C101.289 71.6333 101.548 72.425 102.064 73.125C102.598 73.8083 103.373 74.25 104.389 74.45V67.675C104.273 67.6417 104.148 67.6083 104.014 67.575C103.898 67.525 103.781 67.4833 103.664 67.45C102.314 66.9833 101.314 66.4083 100.664 65.725C100.014 65.025 99.6892 64.1167 99.6892 63C99.6725 61.7 100.081 60.6167 100.914 59.75C101.764 58.8833 102.923 58.3833 104.389 58.25V56.225H106.114V58.25C107.514 58.4167 108.631 58.9417 109.464 59.825C110.298 60.7083 110.723 61.7833 110.739 63.05H108.539C108.539 62.4333 108.339 61.8417 107.939 61.275C107.539 60.6917 106.931 60.3 106.114 60.1V66.15C106.248 66.1833 106.381 66.225 106.514 66.275C106.648 66.325 106.789 66.3667 106.939 66.4C107.773 66.7 108.523 67.05 109.189 67.45C109.856 67.85 110.373 68.3667 110.739 69C111.123 69.6333 111.314 70.4417 111.314 71.425C111.314 72.2083 111.123 72.95 110.739 73.65C110.356 74.35 109.773 74.9417 108.989 75.425C108.223 75.9083 107.264 76.1917 106.114 76.275V78.175H104.389ZM101.864 62.8C101.864 63.5667 102.089 64.15 102.539 64.55C102.989 64.9333 103.606 65.2667 104.389 65.55V60.05C103.639 60.1667 103.031 60.4667 102.564 60.95C102.098 61.4167 101.864 62.0333 101.864 62.8ZM109.139 71.55C109.139 70.5833 108.856 69.8667 108.289 69.4C107.723 68.9333 106.998 68.55 106.114 68.25V74.5C107.081 74.3833 107.823 74.05 108.339 73.5C108.873 72.95 109.139 72.3 109.139 71.55ZM120.067 76.3C118.967 76.3 118.026 76.0833 117.242 75.65C116.459 75.2167 115.834 74.6417 115.367 73.925C114.917 73.1917 114.642 72.3833 114.542 71.5H116.492C116.659 72.45 117.059 73.1833 117.692 73.7C118.326 74.2167 119.126 74.475 120.092 74.475C121.426 74.475 122.534 73.8583 123.417 72.625C124.301 71.375 124.776 69.4333 124.842 66.8C124.442 67.5833 123.801 68.2667 122.917 68.85C122.051 69.4167 121.001 69.7 119.767 69.7C118.784 69.7 117.851 69.4667 116.967 69C116.084 68.5333 115.367 67.8833 114.817 67.05C114.267 66.2 113.992 65.2083 113.992 64.075C113.992 63.0917 114.234 62.15 114.717 61.25C115.217 60.35 115.917 59.6167 116.817 59.05C117.717 58.4833 118.792 58.2 120.042 58.2C121.309 58.2 122.376 58.4417 123.242 58.925C124.109 59.3917 124.801 60.025 125.317 60.825C125.851 61.625 126.234 62.525 126.467 63.525C126.717 64.5083 126.842 65.5167 126.842 66.55C126.842 68.4833 126.576 70.1833 126.042 71.65C125.509 73.1 124.734 74.2417 123.717 75.075C122.717 75.8917 121.501 76.3 120.067 76.3ZM120.192 67.875C120.976 67.875 121.676 67.7 122.292 67.35C122.909 66.9833 123.401 66.5 123.767 65.9C124.134 65.3 124.317 64.65 124.317 63.95C124.317 63.2 124.134 62.5333 123.767 61.95C123.401 61.35 122.909 60.8833 122.292 60.55C121.676 60.2167 120.976 60.05 120.192 60.05C119.409 60.05 118.709 60.2167 118.092 60.55C117.476 60.8833 116.992 61.35 116.642 61.95C116.292 62.5333 116.117 63.2083 116.117 63.975C116.117 65.1583 116.501 66.1083 117.267 66.825C118.051 67.525 119.026 67.875 120.192 67.875Z" fill="black"/>
<path d="M142.95 63.8565L139.668 76.0469H138.595L141.876 63.8565H142.95ZM148.437 64.3338H149.909L153.369 72.7855H153.488L156.948 64.3338H158.42V74.5156H157.267V66.7798H157.167L153.985 74.5156H152.872L149.69 66.7798H149.59V74.5156H148.437V64.3338ZM163.835 74.6747C163.146 74.6747 162.541 74.5107 162.021 74.1825C161.504 73.8544 161.099 73.3954 160.808 72.8054C160.519 72.2154 160.375 71.526 160.375 70.7372C160.375 69.9418 160.519 69.2474 160.808 68.6541C161.099 68.0608 161.504 67.6001 162.021 67.272C162.541 66.9439 163.146 66.7798 163.835 66.7798C164.525 66.7798 165.128 66.9439 165.645 67.272C166.165 67.6001 166.57 68.0608 166.858 68.6541C167.15 69.2474 167.296 69.9418 167.296 70.7372C167.296 71.526 167.15 72.2154 166.858 72.8054C166.57 73.3954 166.165 73.8544 165.645 74.1825C165.128 74.5107 164.525 74.6747 163.835 74.6747ZM163.835 73.6207C164.359 73.6207 164.79 73.4865 165.128 73.218C165.466 72.9496 165.716 72.5966 165.879 72.1591C166.041 71.7216 166.122 71.2476 166.122 70.7372C166.122 70.2268 166.041 69.7512 165.879 69.3104C165.716 68.8696 165.466 68.5133 165.128 68.2415C164.79 67.9697 164.359 67.8338 163.835 67.8338C163.312 67.8338 162.881 67.9697 162.543 68.2415C162.205 68.5133 161.954 68.8696 161.792 69.3104C161.63 69.7512 161.548 70.2268 161.548 70.7372C161.548 71.2476 161.63 71.7216 161.792 72.1591C161.954 72.5966 162.205 72.9496 162.543 73.218C162.881 73.4865 163.312 73.6207 163.835 73.6207ZM170.26 69.9219V74.5156H169.087V66.8793H170.22V68.0724H170.32C170.498 67.6847 170.77 67.3731 171.135 67.1378C171.499 66.8991 171.97 66.7798 172.547 66.7798C173.064 66.7798 173.516 66.8859 173.904 67.098C174.292 67.3068 174.593 67.625 174.809 68.0526C175.024 68.4768 175.132 69.0137 175.132 69.6634V74.5156H173.959V69.7429C173.959 69.143 173.803 68.6757 173.491 68.3409C173.18 68.0028 172.752 67.8338 172.209 67.8338C171.834 67.8338 171.499 67.915 171.204 68.0774C170.913 68.2398 170.682 68.4768 170.513 68.7884C170.344 69.0999 170.26 69.4777 170.26 69.9219ZM180.597 66.8793V67.8736H176.64V66.8793H180.597ZM177.793 65.0497H178.966V72.3281C178.966 72.6596 179.014 72.9081 179.111 73.0739C179.21 73.2363 179.336 73.3456 179.488 73.402C179.644 73.455 179.808 73.4815 179.981 73.4815C180.11 73.4815 180.216 73.4749 180.299 73.4616C180.382 73.4451 180.448 73.4318 180.498 73.4219L180.736 74.4759C180.657 74.5057 180.546 74.5355 180.403 74.5653C180.261 74.5985 180.08 74.6151 179.861 74.6151C179.53 74.6151 179.205 74.5438 178.887 74.4013C178.572 74.2588 178.31 74.0417 178.101 73.75C177.896 73.4583 177.793 73.0904 177.793 72.6463V65.0497ZM183.699 69.9219V74.5156H182.526V64.3338H183.699V68.0724H183.799C183.978 67.678 184.246 67.3648 184.604 67.1328C184.965 66.8975 185.446 66.7798 186.046 66.7798C186.566 66.7798 187.022 66.8842 187.413 67.093C187.804 67.2985 188.107 67.6151 188.323 68.0426C188.542 68.4669 188.651 69.0071 188.651 69.6634V74.5156H187.478V69.7429C187.478 69.1364 187.32 68.6674 187.005 68.3359C186.694 68.0012 186.261 67.8338 185.708 67.8338C185.323 67.8338 184.979 67.915 184.674 68.0774C184.372 68.2398 184.133 68.4768 183.958 68.7884C183.785 69.0999 183.699 69.4777 183.699 69.9219Z" fill="black"/>
<g clip-path="url(#clip1_0_1)">
<path d="M65.3132 146.006L63.7059 144.1C63.6519 144.036 63.5785 144 63.5021 144C63.4256 144 63.3523 144.036 63.2983 144.1L56.5097 152.134C56.4557 152.198 56.3823 152.234 56.3059 152.234C56.2294 152.234 56.1561 152.198 56.1021 152.134L54.4947 150.228C54.4407 150.164 54.3674 150.128 54.2909 150.128C54.2145 150.128 54.1411 150.164 54.0871 150.228L52.4798 152.134C52.3674 152.267 52.3674 152.482 52.4798 152.615L56.1021 156.9C56.1561 156.964 56.2294 157 56.3059 157C56.3823 157 56.4557 156.964 56.5097 156.9L65.3132 146.483C65.4229 146.351 65.4229 146.139 65.3132 146.006Z" fill="#4E2D92"/>
<path d="M82.57 156V146.535H79.435V145.5H86.965V146.535H83.83V156H82.57ZM90.3965 156.18C89.5165 156.18 88.8165 155.915 88.2965 155.385C87.7765 154.845 87.5165 154.02 87.5165 152.91V148.56H88.7765V152.775C88.7765 154.325 89.4115 155.1 90.6815 155.1C91.3315 155.1 91.8665 154.87 92.2865 154.41C92.7165 153.94 92.9315 153.275 92.9315 152.415V148.56H94.1915V156H93.0515L92.9615 154.665C92.7315 155.135 92.3865 155.505 91.9265 155.775C91.4765 156.045 90.9665 156.18 90.3965 156.18ZM96.2655 156V148.56H97.4055L97.5105 149.985C97.7405 149.495 98.0905 149.105 98.5605 148.815C99.0305 148.525 99.6105 148.38 100.3 148.38V149.7H99.9555C99.5155 149.7 99.1105 149.78 98.7405 149.94C98.3705 150.09 98.0755 150.35 97.8555 150.72C97.6355 151.09 97.5255 151.6 97.5255 152.25V156H96.2655ZM101.715 156V148.56H102.855L102.93 149.895C103.17 149.425 103.515 149.055 103.965 148.785C104.415 148.515 104.925 148.38 105.495 148.38C106.375 148.38 107.075 148.65 107.595 149.19C108.125 149.72 108.39 150.54 108.39 151.65V156H107.13V151.785C107.13 150.235 106.49 149.46 105.21 149.46C104.57 149.46 104.035 149.695 103.605 150.165C103.185 150.625 102.975 151.285 102.975 152.145V156H101.715ZM116.953 156V152.01L113.533 145.5H114.958L117.583 150.81L120.208 145.5H121.618L118.213 152.01V156H116.953ZM125.041 156.18C124.341 156.18 123.711 156.02 123.151 155.7C122.591 155.38 122.146 154.93 121.816 154.35C121.496 153.76 121.336 153.07 121.336 152.28C121.336 151.49 121.501 150.805 121.831 150.225C122.161 149.635 122.606 149.18 123.166 148.86C123.736 148.54 124.371 148.38 125.071 148.38C125.771 148.38 126.401 148.54 126.961 148.86C127.521 149.18 127.961 149.635 128.281 150.225C128.611 150.805 128.776 151.49 128.776 152.28C128.776 153.07 128.611 153.76 128.281 154.35C127.951 154.93 127.501 155.38 126.931 155.7C126.371 156.02 125.741 156.18 125.041 156.18ZM125.041 155.1C125.471 155.1 125.871 154.995 126.241 154.785C126.611 154.575 126.911 154.26 127.141 153.84C127.371 153.42 127.486 152.9 127.486 152.28C127.486 151.66 127.371 151.14 127.141 150.72C126.921 150.3 126.626 149.985 126.256 149.775C125.886 149.565 125.491 149.46 125.071 149.46C124.641 149.46 124.241 149.565 123.871 149.775C123.501 149.985 123.201 150.3 122.971 150.72C122.741 151.14 122.626 151.66 122.626 152.28C122.626 152.9 122.741 153.42 122.971 153.84C123.201 154.26 123.496 154.575 123.856 154.785C124.226 154.995 124.621 155.1 125.041 155.1ZM133.243 156.18C132.363 156.18 131.663 155.915 131.143 155.385C130.623 154.845 130.363 154.02 130.363 152.91V148.56H131.623V152.775C131.623 154.325 132.258 155.1 133.528 155.1C134.178 155.1 134.713 154.87 135.133 154.41C135.563 153.94 135.778 153.275 135.778 152.415V148.56H137.038V156H135.898L135.808 154.665C135.578 155.135 135.233 155.505 134.773 155.775C134.323 156.045 133.813 156.18 133.243 156.18ZM139.112 156V148.56H140.252L140.357 149.985C140.587 149.495 140.937 149.105 141.407 148.815C141.877 148.525 142.457 148.38 143.147 148.38V149.7H142.802C142.362 149.7 141.957 149.78 141.587 149.94C141.217 150.09 140.922 150.35 140.702 150.72C140.482 151.09 140.372 151.6 140.372 152.25V156H139.112ZM148.606 156V145.5H152.056C152.876 145.5 153.551 145.635 154.081 145.905C154.611 146.175 155.001 146.54 155.251 147C155.511 147.46 155.641 147.98 155.641 148.56C155.641 149.13 155.516 149.645 155.266 150.105C155.016 150.565 154.626 150.935 154.096 151.215C153.566 151.485 152.886 151.62 152.056 151.62H149.866V156H148.606ZM149.866 150.555H152.026C152.866 150.555 153.461 150.38 153.811 150.03C154.171 149.67 154.351 149.18 154.351 148.56C154.351 147.93 154.171 147.44 153.811 147.09C153.461 146.73 152.866 146.55 152.026 146.55H149.866V150.555ZM157.218 156V148.56H158.358L158.463 149.985C158.693 149.495 159.043 149.105 159.513 148.815C159.983 148.525 160.563 148.38 161.253 148.38V149.7H160.908C160.468 149.7 160.063 149.78 159.693 149.94C159.323 150.09 159.028 150.35 158.808 150.72C158.588 151.09 158.478 151.6 158.478 152.25V156H157.218ZM165.779 156.18C165.079 156.18 164.449 156.02 163.889 155.7C163.329 155.38 162.884 154.93 162.554 154.35C162.234 153.76 162.074 153.07 162.074 152.28C162.074 151.49 162.239 150.805 162.569 150.225C162.899 149.635 163.344 149.18 163.904 148.86C164.474 148.54 165.109 148.38 165.809 148.38C166.509 148.38 167.139 148.54 167.699 148.86C168.259 149.18 168.699 149.635 169.019 150.225C169.349 150.805 169.514 151.49 169.514 152.28C169.514 153.07 169.349 153.76 169.019 154.35C168.689 154.93 168.239 155.38 167.669 155.7C167.109 156.02 166.479 156.18 165.779 156.18ZM165.779 155.1C166.209 155.1 166.609 154.995 166.979 154.785C167.349 154.575 167.649 154.26 167.879 153.84C168.109 153.42 168.224 152.9 168.224 152.28C168.224 151.66 168.109 151.14 167.879 150.72C167.659 150.3 167.364 149.985 166.994 149.775C166.624 149.565 166.229 149.46 165.809 149.46C165.379 149.46 164.979 149.565 164.609 149.775C164.239 149.985 163.939 150.3 163.709 150.72C163.479 151.14 163.364 151.66 163.364 152.28C163.364 152.9 163.479 153.42 163.709 153.84C163.939 154.26 164.234 154.575 164.594 154.785C164.964 154.995 165.359 155.1 165.779 155.1ZM171.265 156V148.56H172.405L172.495 149.64C172.735 149.24 173.055 148.93 173.455 148.71C173.855 148.49 174.305 148.38 174.805 148.38C175.395 148.38 175.9 148.5 176.32 148.74C176.75 148.98 177.08 149.345 177.31 149.835C177.57 149.385 177.925 149.03 178.375 148.77C178.835 148.51 179.33 148.38 179.86 148.38C180.75 148.38 181.46 148.65 181.99 149.19C182.52 149.72 182.785 150.54 182.785 151.65V156H181.54V151.785C181.54 151.015 181.385 150.435 181.075 150.045C180.765 149.655 180.32 149.46 179.74 149.46C179.14 149.46 178.64 149.695 178.24 150.165C177.85 150.625 177.655 151.285 177.655 152.145V156H176.395V151.785C176.395 151.015 176.24 150.435 175.93 150.045C175.62 149.655 175.175 149.46 174.595 149.46C174.005 149.46 173.51 149.695 173.11 150.165C172.72 150.625 172.525 151.285 172.525 152.145V156H171.265ZM184.683 159.3V148.56H185.823L185.943 149.79C186.183 149.43 186.523 149.105 186.963 148.815C187.413 148.525 187.983 148.38 188.673 148.38C189.413 148.38 190.058 148.55 190.608 148.89C191.158 149.23 191.583 149.695 191.883 150.285C192.193 150.875 192.348 151.545 192.348 152.295C192.348 153.045 192.193 153.715 191.883 154.305C191.583 154.885 191.153 155.345 190.593 155.685C190.043 156.015 189.398 156.18 188.658 156.18C188.048 156.18 187.503 156.055 187.023 155.805C186.553 155.555 186.193 155.205 185.943 154.755V159.3H184.683ZM188.523 155.085C189.023 155.085 189.463 154.97 189.843 154.74C190.223 154.5 190.523 154.17 190.743 153.75C190.963 153.33 191.073 152.84 191.073 152.28C191.073 151.72 190.963 151.23 190.743 150.81C190.523 150.39 190.223 150.065 189.843 149.835C189.463 149.595 189.023 149.475 188.523 149.475C188.023 149.475 187.583 149.595 187.203 149.835C186.823 150.065 186.523 150.39 186.303 150.81C186.083 151.23 185.973 151.72 185.973 152.28C185.973 152.84 186.083 153.33 186.303 153.75C186.523 154.17 186.823 154.5 187.203 154.74C187.583 154.97 188.023 155.085 188.523 155.085ZM196.749 156C196.069 156 195.534 155.835 195.144 155.505C194.754 155.175 194.559 154.58 194.559 153.72V149.625H193.269V148.56H194.559L194.724 146.775H195.819V148.56H198.009V149.625H195.819V153.72C195.819 154.19 195.914 154.51 196.104 154.68C196.294 154.84 196.629 154.92 197.109 154.92H197.889V156H196.749ZM206.115 156V146.535H202.98V145.5H210.51V146.535H207.375V156H206.115ZM214.016 156.18C213.316 156.18 212.686 156.02 212.126 155.7C211.566 155.38 211.121 154.93 210.791 154.35C210.471 153.76 210.311 153.07 210.311 152.28C210.311 151.49 210.476 150.805 210.806 150.225C211.136 149.635 211.581 149.18 212.141 148.86C212.711 148.54 213.346 148.38 214.046 148.38C214.746 148.38 215.376 148.54 215.936 148.86C216.496 149.18 216.936 149.635 217.256 150.225C217.586 150.805 217.751 151.49 217.751 152.28C217.751 153.07 217.586 153.76 217.256 154.35C216.926 154.93 216.476 155.38 215.906 155.7C215.346 156.02 214.716 156.18 214.016 156.18ZM214.016 155.1C214.446 155.1 214.846 154.995 215.216 154.785C215.586 154.575 215.886 154.26 216.116 153.84C216.346 153.42 216.461 152.9 216.461 152.28C216.461 151.66 216.346 151.14 216.116 150.72C215.896 150.3 215.601 149.985 215.231 149.775C214.861 149.565 214.466 149.46 214.046 149.46C213.616 149.46 213.216 149.565 212.846 149.775C212.476 149.985 212.176 150.3 211.946 150.72C211.716 151.14 211.601 151.66 211.601 152.28C211.601 152.9 211.716 153.42 211.946 153.84C212.176 154.26 212.471 154.575 212.831 154.785C213.201 154.995 213.596 155.1 214.016 155.1ZM226.713 156L222.768 145.5H224.133L227.448 154.665L230.793 145.5H232.128L228.183 156H226.713ZM234.257 146.91C234.007 146.91 233.797 146.83 233.627 146.67C233.467 146.5 233.387 146.29 233.387 146.04C233.387 145.8 233.467 145.6 233.627 145.44C233.797 145.28 234.007 145.2 234.257 145.2C234.497 145.2 234.702 145.28 234.872 145.44C235.042 145.6 235.127 145.8 235.127 146.04C235.127 146.29 235.042 146.5 234.872 146.67C234.702 146.83 234.497 146.91 234.257 146.91ZM233.627 156V148.56H234.887V156H233.627ZM237.081 156V148.56H238.221L238.326 149.985C238.556 149.495 238.906 149.105 239.376 148.815C239.846 148.525 240.426 148.38 241.116 148.38V149.7H240.771C240.331 149.7 239.926 149.78 239.556 149.94C239.186 150.09 238.891 150.35 238.671 150.72C238.451 151.09 238.341 151.6 238.341 152.25V156H237.081ZM245.005 156.18C244.385 156.18 243.87 156.075 243.46 155.865C243.05 155.655 242.745 155.375 242.545 155.025C242.345 154.675 242.245 154.295 242.245 153.885C242.245 153.125 242.535 152.54 243.115 152.13C243.695 151.72 244.485 151.515 245.485 151.515H247.495V151.425C247.495 150.775 247.325 150.285 246.985 149.955C246.645 149.615 246.19 149.445 245.62 149.445C245.13 149.445 244.705 149.57 244.345 149.82C243.995 150.06 243.775 150.415 243.685 150.885H242.395C242.445 150.345 242.625 149.89 242.935 149.52C243.255 149.15 243.65 148.87 244.12 148.68C244.59 148.48 245.09 148.38 245.62 148.38C246.66 148.38 247.44 148.66 247.96 149.22C248.49 149.77 248.755 150.505 248.755 151.425V156H247.63L247.555 154.665C247.345 155.085 247.035 155.445 246.625 155.745C246.225 156.035 245.685 156.18 245.005 156.18ZM245.2 155.115C245.68 155.115 246.09 154.99 246.43 154.74C246.78 154.49 247.045 154.165 247.225 153.765C247.405 153.365 247.495 152.945 247.495 152.505V152.49H245.59C244.85 152.49 244.325 152.62 244.015 152.88C243.715 153.13 243.565 153.445 243.565 153.825C243.565 154.215 243.705 154.53 243.985 154.77C244.275 155 244.68 155.115 245.2 155.115ZM250.645 156V145.2H251.905V156H250.645ZM262.62 156.18C261.59 156.18 260.7 155.955 259.95 155.505C259.21 155.045 258.635 154.41 258.225 153.6C257.815 152.78 257.61 151.83 257.61 150.75C257.61 149.68 257.815 148.74 258.225 147.93C258.635 147.11 259.21 146.47 259.95 146.01C260.7 145.55 261.59 145.32 262.62 145.32C263.82 145.32 264.795 145.61 265.545 146.19C266.305 146.76 266.79 147.56 267 148.59H265.605C265.445 147.94 265.115 147.42 264.615 147.03C264.125 146.63 263.46 146.43 262.62 146.43C261.87 146.43 261.215 146.605 260.655 146.955C260.095 147.295 259.66 147.79 259.35 148.44C259.05 149.08 258.9 149.85 258.9 150.75C258.9 151.65 259.05 152.425 259.35 153.075C259.66 153.715 260.095 154.21 260.655 154.56C261.215 154.9 261.87 155.07 262.62 155.07C263.46 155.07 264.125 154.88 264.615 154.5C265.115 154.11 265.445 153.595 265.605 152.955H267C266.79 153.965 266.305 154.755 265.545 155.325C264.795 155.895 263.82 156.18 262.62 156.18ZM268.736 156V145.2H269.996V156H268.736ZM272.826 146.91C272.576 146.91 272.366 146.83 272.196 146.67C272.036 146.5 271.956 146.29 271.956 146.04C271.956 145.8 272.036 145.6 272.196 145.44C272.366 145.28 272.576 145.2 272.826 145.2C273.066 145.2 273.271 145.28 273.441 145.44C273.611 145.6 273.696 145.8 273.696 146.04C273.696 146.29 273.611 146.5 273.441 146.67C273.271 146.83 273.066 146.91 272.826 146.91ZM272.196 156V148.56H273.456V156H272.196ZM275.65 159.3V148.56H276.79L276.91 149.79C277.15 149.43 277.49 149.105 277.93 148.815C278.38 148.525 278.95 148.38 279.64 148.38C280.38 148.38 281.025 148.55 281.575 148.89C282.125 149.23 282.55 149.695 282.85 150.285C283.16 150.875 283.315 151.545 283.315 152.295C283.315 153.045 283.16 153.715 282.85 154.305C282.55 154.885 282.12 155.345 281.56 155.685C281.01 156.015 280.365 156.18 279.625 156.18C279.015 156.18 278.47 156.055 277.99 155.805C277.52 155.555 277.16 155.205 276.91 154.755V159.3H275.65ZM279.49 155.085C279.99 155.085 280.43 154.97 280.81 154.74C281.19 154.5 281.49 154.17 281.71 153.75C281.93 153.33 282.04 152.84 282.04 152.28C282.04 151.72 281.93 151.23 281.71 150.81C281.49 150.39 281.19 150.065 280.81 149.835C280.43 149.595 279.99 149.475 279.49 149.475C278.99 149.475 278.55 149.595 278.17 149.835C277.79 150.065 277.49 150.39 277.27 150.81C277.05 151.23 276.94 151.72 276.94 152.28C276.94 152.84 277.05 153.33 277.27 153.75C277.49 154.17 277.79 154.5 278.17 154.74C278.55 154.97 278.99 155.085 279.49 155.085ZM287.919 156.18C287.029 156.18 286.289 155.955 285.699 155.505C285.109 155.055 284.764 154.445 284.664 153.675H285.954C286.034 154.065 286.239 154.405 286.569 154.695C286.909 154.975 287.364 155.115 287.934 155.115C288.464 155.115 288.854 155.005 289.104 154.785C289.354 154.555 289.479 154.285 289.479 153.975C289.479 153.525 289.314 153.225 288.984 153.075C288.664 152.925 288.209 152.79 287.619 152.67C287.219 152.59 286.819 152.475 286.419 152.325C286.019 152.175 285.684 151.965 285.414 151.695C285.144 151.415 285.009 151.05 285.009 150.6C285.009 149.95 285.249 149.42 285.729 149.01C286.219 148.59 286.879 148.38 287.709 148.38C288.499 148.38 289.144 148.58 289.644 148.98C290.154 149.37 290.449 149.93 290.529 150.66H289.284C289.234 150.28 289.069 149.985 288.789 149.775C288.519 149.555 288.154 149.445 287.694 149.445C287.244 149.445 286.894 149.54 286.644 149.73C286.404 149.92 286.284 150.17 286.284 150.48C286.284 150.78 286.439 151.015 286.749 151.185C287.069 151.355 287.499 151.5 288.039 151.62C288.499 151.72 288.934 151.845 289.344 151.995C289.764 152.135 290.104 152.35 290.364 152.64C290.634 152.92 290.769 153.33 290.769 153.87C290.779 154.54 290.524 155.095 290.004 155.535C289.494 155.965 288.799 156.18 287.919 156.18Z" fill="black"/>
</g>
<path d="M63.9177 186.006L62.3104 184.1C62.2564 184.036 62.183 184 62.1066 184C62.0301 184 61.9568 184.036 61.9028 184.1L55.1142 192.134C55.0602 192.198 54.9868 192.234 54.9104 192.234C54.8339 192.234 54.7606 192.198 54.7066 192.134L53.0992 190.228C53.0452 190.164 52.9719 190.128 52.8954 190.128C52.819 190.128 52.7456 190.164 52.6916 190.228L51.0843 192.134C50.9719 192.267 50.9719 192.482 51.0843 192.615L54.7066 196.9C54.7606 196.964 54.8339 197 54.9104 197C54.9868 197 55.0602 196.964 55.1142 196.9L63.9177 186.483C64.0274 186.351 64.0274 186.139 63.9177 186.006Z" fill="#4E2D92"/>
<path d="M83.0711 197.18C82.3011 197.18 81.6311 197.04 81.0611 196.76C80.4911 196.48 80.0511 196.09 79.7411 195.59C79.4311 195.09 79.2761 194.51 79.2761 193.85H80.5961C80.5961 194.26 80.6911 194.64 80.8811 194.99C81.0711 195.33 81.3461 195.605 81.7061 195.815C82.0761 196.015 82.5311 196.115 83.0711 196.115C83.7811 196.115 84.3311 195.945 84.7211 195.605C85.1111 195.265 85.3061 194.84 85.3061 194.33C85.3061 193.91 85.2161 193.575 85.0361 193.325C84.8561 193.065 84.6111 192.855 84.3011 192.695C84.0011 192.535 83.6511 192.395 83.2511 192.275C82.8611 192.155 82.4511 192.02 82.0211 191.87C81.2111 191.59 80.6111 191.245 80.2211 190.835C79.8311 190.415 79.6361 189.87 79.6361 189.2C79.6261 188.64 79.7561 188.145 80.0261 187.715C80.2961 187.275 80.6761 186.935 81.1661 186.695C81.6661 186.445 82.2561 186.32 82.9361 186.32C83.6061 186.32 84.1861 186.445 84.6761 186.695C85.1761 186.945 85.5611 187.29 85.8311 187.73C86.1111 188.17 86.2561 188.67 86.2661 189.23H84.9461C84.9461 188.94 84.8711 188.655 84.7211 188.375C84.5711 188.085 84.3411 187.85 84.0311 187.67C83.7311 187.49 83.3511 187.4 82.8911 187.4C82.3211 187.39 81.8511 187.535 81.4811 187.835C81.1211 188.135 80.9411 188.55 80.9411 189.08C80.9411 189.53 81.0661 189.875 81.3161 190.115C81.5761 190.355 81.9361 190.555 82.3961 190.715C82.8561 190.865 83.3861 191.04 83.9861 191.24C84.4861 191.42 84.9361 191.63 85.3361 191.87C85.7361 192.11 86.0461 192.42 86.2661 192.8C86.4961 193.18 86.6111 193.665 86.6111 194.255C86.6111 194.755 86.4811 195.23 86.2211 195.68C85.9611 196.12 85.5661 196.48 85.0361 196.76C84.5161 197.04 83.8611 197.18 83.0711 197.18ZM91.038 197.18C90.158 197.18 89.458 196.915 88.938 196.385C88.418 195.845 88.158 195.02 88.158 193.91V189.56H89.418V193.775C89.418 195.325 90.053 196.1 91.323 196.1C91.973 196.1 92.508 195.87 92.928 195.41C93.358 194.94 93.573 194.275 93.573 193.415V189.56H94.833V197H93.693L93.603 195.665C93.373 196.135 93.028 196.505 92.568 196.775C92.118 197.045 91.608 197.18 91.038 197.18ZM96.9069 200.3V189.56H98.0469L98.1669 190.79C98.4069 190.43 98.7469 190.105 99.1869 189.815C99.6369 189.525 100.207 189.38 100.897 189.38C101.637 189.38 102.282 189.55 102.832 189.89C103.382 190.23 103.807 190.695 104.107 191.285C104.417 191.875 104.572 192.545 104.572 193.295C104.572 194.045 104.417 194.715 104.107 195.305C103.807 195.885 103.377 196.345 102.817 196.685C102.267 197.015 101.622 197.18 100.882 197.18C100.272 197.18 99.7269 197.055 99.2469 196.805C98.7769 196.555 98.4169 196.205 98.1669 195.755V200.3H96.9069ZM100.747 196.085C101.247 196.085 101.687 195.97 102.067 195.74C102.447 195.5 102.747 195.17 102.967 194.75C103.187 194.33 103.297 193.84 103.297 193.28C103.297 192.72 103.187 192.23 102.967 191.81C102.747 191.39 102.447 191.065 102.067 190.835C101.687 190.595 101.247 190.475 100.747 190.475C100.247 190.475 99.8069 190.595 99.4269 190.835C99.0469 191.065 98.7469 191.39 98.5269 191.81C98.3069 192.23 98.1969 192.72 98.1969 193.28C98.1969 193.84 98.3069 194.33 98.5269 194.75C98.7469 195.17 99.0469 195.5 99.4269 195.74C99.8069 195.97 100.247 196.085 100.747 196.085ZM106.326 200.3V189.56H107.466L107.586 190.79C107.826 190.43 108.166 190.105 108.606 189.815C109.056 189.525 109.626 189.38 110.316 189.38C111.056 189.38 111.701 189.55 112.251 189.89C112.801 190.23 113.226 190.695 113.526 191.285C113.836 191.875 113.991 192.545 113.991 193.295C113.991 194.045 113.836 194.715 113.526 195.305C113.226 195.885 112.796 196.345 112.236 196.685C111.686 197.015 111.041 197.18 110.301 197.18C109.691 197.18 109.146 197.055 108.666 196.805C108.196 196.555 107.836 196.205 107.586 195.755V200.3H106.326ZM110.166 196.085C110.666 196.085 111.106 195.97 111.486 195.74C111.866 195.5 112.166 195.17 112.386 194.75C112.606 194.33 112.716 193.84 112.716 193.28C112.716 192.72 112.606 192.23 112.386 191.81C112.166 191.39 111.866 191.065 111.486 190.835C111.106 190.595 110.666 190.475 110.166 190.475C109.666 190.475 109.226 190.595 108.846 190.835C108.466 191.065 108.166 191.39 107.946 191.81C107.726 192.23 107.616 192.72 107.616 193.28C107.616 193.84 107.726 194.33 107.946 194.75C108.166 195.17 108.466 195.5 108.846 195.74C109.226 195.97 109.666 196.085 110.166 196.085ZM119.135 197.18C118.435 197.18 117.805 197.02 117.245 196.7C116.685 196.38 116.24 195.93 115.91 195.35C115.59 194.76 115.43 194.07 115.43 193.28C115.43 192.49 115.595 191.805 115.925 191.225C116.255 190.635 116.7 190.18 117.26 189.86C117.83 189.54 118.465 189.38 119.165 189.38C119.865 189.38 120.495 189.54 121.055 189.86C121.615 190.18 122.055 190.635 122.375 191.225C122.705 191.805 122.87 192.49 122.87 193.28C122.87 194.07 122.705 194.76 122.375 195.35C122.045 195.93 121.595 196.38 121.025 196.7C120.465 197.02 119.835 197.18 119.135 197.18ZM119.135 196.1C119.565 196.1 119.965 195.995 120.335 195.785C120.705 195.575 121.005 195.26 121.235 194.84C121.465 194.42 121.58 193.9 121.58 193.28C121.58 192.66 121.465 192.14 121.235 191.72C121.015 191.3 120.72 190.985 120.35 190.775C119.98 190.565 119.585 190.46 119.165 190.46C118.735 190.46 118.335 190.565 117.965 190.775C117.595 190.985 117.295 191.3 117.065 191.72C116.835 192.14 116.72 192.66 116.72 193.28C116.72 193.9 116.835 194.42 117.065 194.84C117.295 195.26 117.59 195.575 117.95 195.785C118.32 195.995 118.715 196.1 119.135 196.1ZM124.622 197V189.56H125.762L125.867 190.985C126.097 190.495 126.447 190.105 126.917 189.815C127.387 189.525 127.967 189.38 128.657 189.38V190.7H128.312C127.872 190.7 127.467 190.78 127.097 190.94C126.727 191.09 126.432 191.35 126.212 191.72C125.992 192.09 125.882 192.6 125.882 193.25V197H124.622ZM133.011 197C132.331 197 131.796 196.835 131.406 196.505C131.016 196.175 130.821 195.58 130.821 194.72V190.625H129.531V189.56H130.821L130.986 187.775H132.081V189.56H134.271V190.625H132.081V194.72C132.081 195.19 132.176 195.51 132.366 195.68C132.556 195.84 132.891 195.92 133.371 195.92H134.151V197H133.011ZM138.722 197.18C137.832 197.18 137.092 196.955 136.502 196.505C135.912 196.055 135.567 195.445 135.467 194.675H136.757C136.837 195.065 137.042 195.405 137.372 195.695C137.712 195.975 138.167 196.115 138.737 196.115C139.267 196.115 139.657 196.005 139.907 195.785C140.157 195.555 140.282 195.285 140.282 194.975C140.282 194.525 140.117 194.225 139.787 194.075C139.467 193.925 139.012 193.79 138.422 193.67C138.022 193.59 137.622 193.475 137.222 193.325C136.822 193.175 136.487 192.965 136.217 192.695C135.947 192.415 135.812 192.05 135.812 191.6C135.812 190.95 136.052 190.42 136.532 190.01C137.022 189.59 137.682 189.38 138.512 189.38C139.302 189.38 139.947 189.58 140.447 189.98C140.957 190.37 141.252 190.93 141.332 191.66H140.087C140.037 191.28 139.872 190.985 139.592 190.775C139.322 190.555 138.957 190.445 138.497 190.445C138.047 190.445 137.697 190.54 137.447 190.73C137.207 190.92 137.087 191.17 137.087 191.48C137.087 191.78 137.242 192.015 137.552 192.185C137.872 192.355 138.302 192.5 138.842 192.62C139.302 192.72 139.737 192.845 140.147 192.995C140.567 193.135 140.907 193.35 141.167 193.64C141.437 193.92 141.572 194.33 141.572 194.87C141.582 195.54 141.327 196.095 140.807 196.535C140.297 196.965 139.602 197.18 138.722 197.18ZM146.757 197L150.627 186.5H151.962L155.817 197H154.482L153.522 194.3H149.052L148.077 197H146.757ZM149.427 193.28H153.147L151.287 188.09L149.427 193.28ZM157.302 197V186.2H158.562V197H157.302ZM160.628 197V186.2H161.888V197H160.628ZM167.998 197V186.5H169.258V195.995H174.148V197H167.998ZM178.278 197.18C177.658 197.18 177.143 197.075 176.733 196.865C176.323 196.655 176.018 196.375 175.818 196.025C175.618 195.675 175.518 195.295 175.518 194.885C175.518 194.125 175.808 193.54 176.388 193.13C176.968 192.72 177.758 192.515 178.758 192.515H180.768V192.425C180.768 191.775 180.598 191.285 180.258 190.955C179.918 190.615 179.463 190.445 178.893 190.445C178.403 190.445 177.978 190.57 177.618 190.82C177.268 191.06 177.048 191.415 176.958 191.885H175.668C175.718 191.345 175.898 190.89 176.208 190.52C176.528 190.15 176.923 189.87 177.393 189.68C177.863 189.48 178.363 189.38 178.893 189.38C179.933 189.38 180.713 189.66 181.233 190.22C181.763 190.77 182.028 191.505 182.028 192.425V197H180.903L180.828 195.665C180.618 196.085 180.308 196.445 179.898 196.745C179.498 197.035 178.958 197.18 178.278 197.18ZM178.473 196.115C178.953 196.115 179.363 195.99 179.703 195.74C180.053 195.49 180.318 195.165 180.498 194.765C180.678 194.365 180.768 193.945 180.768 193.505V193.49H178.863C178.123 193.49 177.598 193.62 177.288 193.88C176.988 194.13 176.838 194.445 176.838 194.825C176.838 195.215 176.978 195.53 177.258 195.77C177.548 196 177.953 196.115 178.473 196.115ZM183.919 197V189.56H185.059L185.134 190.895C185.374 190.425 185.719 190.055 186.169 189.785C186.619 189.515 187.129 189.38 187.699 189.38C188.579 189.38 189.279 189.65 189.799 190.19C190.329 190.72 190.594 191.54 190.594 192.65V197H189.334V192.785C189.334 191.235 188.694 190.46 187.414 190.46C186.774 190.46 186.239 190.695 185.809 191.165C185.389 191.625 185.179 192.285 185.179 193.145V197H183.919ZM195.443 194.66C195.023 194.66 194.638 194.605 194.288 194.495L193.538 195.2C193.648 195.28 193.783 195.35 193.943 195.41C194.113 195.46 194.353 195.51 194.663 195.56C194.973 195.6 195.408 195.645 195.968 195.695C196.968 195.765 197.683 195.995 198.113 196.385C198.543 196.775 198.758 197.285 198.758 197.915C198.758 198.345 198.638 198.755 198.398 199.145C198.168 199.535 197.808 199.855 197.318 200.105C196.838 200.355 196.218 200.48 195.458 200.48C194.788 200.48 194.193 200.39 193.673 200.21C193.153 200.04 192.748 199.775 192.458 199.415C192.168 199.065 192.023 198.62 192.023 198.08C192.023 197.8 192.098 197.495 192.248 197.165C192.398 196.845 192.678 196.54 193.088 196.25C192.868 196.16 192.678 196.065 192.518 195.965C192.368 195.855 192.228 195.735 192.098 195.605V195.26L193.373 194C192.783 193.5 192.488 192.84 192.488 192.02C192.488 191.53 192.603 191.085 192.833 190.685C193.063 190.285 193.398 189.97 193.838 189.74C194.278 189.5 194.813 189.38 195.443 189.38C195.873 189.38 196.263 189.44 196.613 189.56H199.358V190.505L197.963 190.565C198.253 190.985 198.398 191.47 198.398 192.02C198.398 192.51 198.278 192.955 198.038 193.355C197.808 193.755 197.473 194.075 197.033 194.315C196.603 194.545 196.073 194.66 195.443 194.66ZM195.443 193.625C195.973 193.625 196.393 193.49 196.703 193.22C197.023 192.94 197.183 192.54 197.183 192.02C197.183 191.51 197.023 191.12 196.703 190.85C196.393 190.57 195.973 190.43 195.443 190.43C194.903 190.43 194.473 190.57 194.153 190.85C193.843 191.12 193.688 191.51 193.688 192.02C193.688 192.54 193.843 192.94 194.153 193.22C194.473 193.49 194.903 193.625 195.443 193.625ZM193.253 197.96C193.253 198.46 193.463 198.83 193.883 199.07C194.303 199.32 194.828 199.445 195.458 199.445C196.078 199.445 196.573 199.31 196.943 199.04C197.323 198.77 197.513 198.41 197.513 197.96C197.513 197.64 197.383 197.36 197.123 197.12C196.863 196.89 196.383 196.755 195.683 196.715C195.133 196.675 194.658 196.625 194.258 196.565C193.848 196.785 193.578 197.02 193.448 197.27C193.318 197.53 193.253 197.76 193.253 197.96ZM203.494 197.18C202.614 197.18 201.914 196.915 201.394 196.385C200.874 195.845 200.614 195.02 200.614 193.91V189.56H201.874V193.775C201.874 195.325 202.509 196.1 203.779 196.1C204.429 196.1 204.964 195.87 205.384 195.41C205.814 194.94 206.029 194.275 206.029 193.415V189.56H207.289V197H206.149L206.059 195.665C205.829 196.135 205.484 196.505 205.024 196.775C204.574 197.045 204.064 197.18 203.494 197.18ZM211.838 197.18C211.218 197.18 210.703 197.075 210.293 196.865C209.883 196.655 209.578 196.375 209.378 196.025C209.178 195.675 209.078 195.295 209.078 194.885C209.078 194.125 209.368 193.54 209.948 193.13C210.528 192.72 211.318 192.515 212.318 192.515H214.328V192.425C214.328 191.775 214.158 191.285 213.818 190.955C213.478 190.615 213.023 190.445 212.453 190.445C211.963 190.445 211.538 190.57 211.178 190.82C210.828 191.06 210.608 191.415 210.518 191.885H209.228C209.278 191.345 209.458 190.89 209.768 190.52C210.088 190.15 210.483 189.87 210.953 189.68C211.423 189.48 211.923 189.38 212.453 189.38C213.493 189.38 214.273 189.66 214.793 190.22C215.323 190.77 215.588 191.505 215.588 192.425V197H214.463L214.388 195.665C214.178 196.085 213.868 196.445 213.458 196.745C213.058 197.035 212.518 197.18 211.838 197.18ZM212.033 196.115C212.513 196.115 212.923 195.99 213.263 195.74C213.613 195.49 213.878 195.165 214.058 194.765C214.238 194.365 214.328 193.945 214.328 193.505V193.49H212.423C211.683 193.49 211.158 193.62 210.848 193.88C210.548 194.13 210.398 194.445 210.398 194.825C210.398 195.215 210.538 195.53 210.818 195.77C211.108 196 211.513 196.115 212.033 196.115ZM220.418 194.66C219.998 194.66 219.613 194.605 219.263 194.495L218.513 195.2C218.623 195.28 218.758 195.35 218.918 195.41C219.088 195.46 219.328 195.51 219.638 195.56C219.948 195.6 220.383 195.645 220.943 195.695C221.943 195.765 222.658 195.995 223.088 196.385C223.518 196.775 223.733 197.285 223.733 197.915C223.733 198.345 223.613 198.755 223.373 199.145C223.143 199.535 222.783 199.855 222.293 200.105C221.813 200.355 221.193 200.48 220.433 200.48C219.763 200.48 219.168 200.39 218.648 200.21C218.128 200.04 217.723 199.775 217.433 199.415C217.143 199.065 216.998 198.62 216.998 198.08C216.998 197.8 217.073 197.495 217.223 197.165C217.373 196.845 217.653 196.54 218.063 196.25C217.843 196.16 217.653 196.065 217.493 195.965C217.343 195.855 217.203 195.735 217.073 195.605V195.26L218.348 194C217.758 193.5 217.463 192.84 217.463 192.02C217.463 191.53 217.578 191.085 217.808 190.685C218.038 190.285 218.373 189.97 218.813 189.74C219.253 189.5 219.788 189.38 220.418 189.38C220.848 189.38 221.238 189.44 221.588 189.56H224.333V190.505L222.938 190.565C223.228 190.985 223.373 191.47 223.373 192.02C223.373 192.51 223.253 192.955 223.013 193.355C222.783 193.755 222.448 194.075 222.008 194.315C221.578 194.545 221.048 194.66 220.418 194.66ZM220.418 193.625C220.948 193.625 221.368 193.49 221.678 193.22C221.998 192.94 222.158 192.54 222.158 192.02C222.158 191.51 221.998 191.12 221.678 190.85C221.368 190.57 220.948 190.43 220.418 190.43C219.878 190.43 219.448 190.57 219.128 190.85C218.818 191.12 218.663 191.51 218.663 192.02C218.663 192.54 218.818 192.94 219.128 193.22C219.448 193.49 219.878 193.625 220.418 193.625ZM218.228 197.96C218.228 198.46 218.438 198.83 218.858 199.07C219.278 199.32 219.803 199.445 220.433 199.445C221.053 199.445 221.548 199.31 221.918 199.04C222.298 198.77 222.488 198.41 222.488 197.96C222.488 197.64 222.358 197.36 222.098 197.12C221.838 196.89 221.358 196.755 220.658 196.715C220.108 196.675 219.633 196.625 219.233 196.565C218.823 196.785 218.553 197.02 218.423 197.27C218.293 197.53 218.228 197.76 218.228 197.96ZM228.807 197.18C228.097 197.18 227.467 197.02 226.917 196.7C226.367 196.37 225.932 195.915 225.612 195.335C225.302 194.755 225.147 194.07 225.147 193.28C225.147 192.5 225.302 191.82 225.612 191.24C225.922 190.65 226.352 190.195 226.902 189.875C227.462 189.545 228.107 189.38 228.837 189.38C229.557 189.38 230.177 189.545 230.697 189.875C231.227 190.195 231.632 190.62 231.912 191.15C232.192 191.68 232.332 192.25 232.332 192.86C232.332 192.97 232.327 193.08 232.317 193.19C232.317 193.3 232.317 193.425 232.317 193.565H226.392C226.422 194.135 226.552 194.61 226.782 194.99C227.022 195.36 227.317 195.64 227.667 195.83C228.027 196.02 228.407 196.115 228.807 196.115C229.327 196.115 229.762 195.995 230.112 195.755C230.462 195.515 230.717 195.19 230.877 194.78H232.122C231.922 195.47 231.537 196.045 230.967 196.505C230.407 196.955 229.687 197.18 228.807 197.18ZM228.807 190.445C228.207 190.445 227.672 190.63 227.202 191C226.742 191.36 226.477 191.89 226.407 192.59H231.087C231.057 191.92 230.827 191.395 230.397 191.015C229.967 190.635 229.437 190.445 228.807 190.445ZM236.852 197.18C235.962 197.18 235.222 196.955 234.632 196.505C234.042 196.055 233.697 195.445 233.597 194.675H234.887C234.967 195.065 235.172 195.405 235.502 195.695C235.842 195.975 236.297 196.115 236.867 196.115C237.397 196.115 237.787 196.005 238.037 195.785C238.287 195.555 238.412 195.285 238.412 194.975C238.412 194.525 238.247 194.225 237.917 194.075C237.597 193.925 237.142 193.79 236.552 193.67C236.152 193.59 235.752 193.475 235.352 193.325C234.952 193.175 234.617 192.965 234.347 192.695C234.077 192.415 233.942 192.05 233.942 191.6C233.942 190.95 234.182 190.42 234.662 190.01C235.152 189.59 235.812 189.38 236.642 189.38C237.432 189.38 238.077 189.58 238.577 189.98C239.087 190.37 239.382 190.93 239.462 191.66H238.217C238.167 191.28 238.002 190.985 237.722 190.775C237.452 190.555 237.087 190.445 236.627 190.445C236.177 190.445 235.827 190.54 235.577 190.73C235.337 190.92 235.217 191.17 235.217 191.48C235.217 191.78 235.372 192.015 235.682 192.185C236.002 192.355 236.432 192.5 236.972 192.62C237.432 192.72 237.867 192.845 238.277 192.995C238.697 193.135 239.037 193.35 239.297 193.64C239.567 193.92 239.702 194.33 239.702 194.87C239.712 195.54 239.457 196.095 238.937 196.535C238.427 196.965 237.732 197.18 236.852 197.18Z" fill="black"/>
<g clip-path="url(#clip2_0_1)">
<path d="M64.7764 226.006L63.0823 224.1C63.0254 224.036 62.9481 224 62.8675 224C62.787 224 62.7097 224.036 62.6528 224.1L55.4979 232.134C55.441 232.198 55.3638 232.234 55.2832 232.234C55.2026 232.234 55.1253 232.198 55.0684 232.134L53.3743 230.228C53.3174 230.164 53.2401 230.128 53.1595 230.128C53.0789 230.128 53.0017 230.164 52.9447 230.228L51.2507 232.134C51.1323 232.267 51.1323 232.482 51.2507 232.615L55.0684 236.9C55.1253 236.964 55.2026 237 55.2832 237C55.3638 237 55.441 236.964 55.4979 236.9L64.7764 226.483C64.892 226.351 64.892 226.139 64.7764 226.006Z" fill="#4E2D92"/>
<path d="M79.11 237V226.5H80.37V237H79.11ZM82.5213 237V229.56H83.6613L83.7363 230.895C83.9763 230.425 84.3213 230.055 84.7713 229.785C85.2213 229.515 85.7313 229.38 86.3013 229.38C87.1813 229.38 87.8813 229.65 88.4013 230.19C88.9313 230.72 89.1963 231.54 89.1963 232.65V237H87.9363V232.785C87.9363 231.235 87.2963 230.46 86.0163 230.46C85.3763 230.46 84.8413 230.695 84.4113 231.165C83.9913 231.625 83.7813 232.285 83.7813 233.145V237H82.5213ZM93.9553 237.18C93.0653 237.18 92.3253 236.955 91.7353 236.505C91.1453 236.055 90.8003 235.445 90.7003 234.675H91.9903C92.0703 235.065 92.2753 235.405 92.6053 235.695C92.9453 235.975 93.4003 236.115 93.9703 236.115C94.5003 236.115 94.8903 236.005 95.1403 235.785C95.3903 235.555 95.5153 235.285 95.5153 234.975C95.5153 234.525 95.3503 234.225 95.0203 234.075C94.7003 233.925 94.2453 233.79 93.6553 233.67C93.2553 233.59 92.8553 233.475 92.4553 233.325C92.0553 233.175 91.7203 232.965 91.4503 232.695C91.1803 232.415 91.0453 232.05 91.0453 231.6C91.0453 230.95 91.2853 230.42 91.7653 230.01C92.2553 229.59 92.9153 229.38 93.7453 229.38C94.5353 229.38 95.1803 229.58 95.6803 229.98C96.1903 230.37 96.4853 230.93 96.5653 231.66H95.3203C95.2703 231.28 95.1053 230.985 94.8253 230.775C94.5553 230.555 94.1903 230.445 93.7303 230.445C93.2803 230.445 92.9303 230.54 92.6803 230.73C92.4403 230.92 92.3203 231.17 92.3203 231.48C92.3203 231.78 92.4753 232.015 92.7853 232.185C93.1053 232.355 93.5353 232.5 94.0753 232.62C94.5353 232.72 94.9703 232.845 95.3803 232.995C95.8003 233.135 96.1403 233.35 96.4003 233.64C96.6703 233.92 96.8053 234.33 96.8053 234.87C96.8153 235.54 96.5603 236.095 96.0403 236.535C95.5303 236.965 94.8353 237.18 93.9553 237.18ZM101.208 237C100.528 237 99.9934 236.835 99.6034 236.505C99.2134 236.175 99.0184 235.58 99.0184 234.72V230.625H97.7284V229.56H99.0184L99.1834 227.775H100.278V229.56H102.468V230.625H100.278V234.72C100.278 235.19 100.373 235.51 100.563 235.68C100.753 235.84 101.088 235.92 101.568 235.92H102.348V237H101.208ZM106.544 237.18C105.924 237.18 105.409 237.075 104.999 236.865C104.589 236.655 104.284 236.375 104.084 236.025C103.884 235.675 103.784 235.295 103.784 234.885C103.784 234.125 104.074 233.54 104.654 233.13C105.234 232.72 106.024 232.515 107.024 232.515H109.034V232.425C109.034 231.775 108.864 231.285 108.524 230.955C108.184 230.615 107.729 230.445 107.159 230.445C106.669 230.445 106.244 230.57 105.884 230.82C105.534 231.06 105.314 231.415 105.224 231.885H103.934C103.984 231.345 104.164 230.89 104.474 230.52C104.794 230.15 105.189 229.87 105.659 229.68C106.129 229.48 106.629 229.38 107.159 229.38C108.199 229.38 108.979 229.66 109.499 230.22C110.029 230.77 110.294 231.505 110.294 232.425V237H109.169L109.094 235.665C108.884 236.085 108.574 236.445 108.164 236.745C107.764 237.035 107.224 237.18 106.544 237.18ZM106.739 236.115C107.219 236.115 107.629 235.99 107.969 235.74C108.319 235.49 108.584 235.165 108.764 234.765C108.944 234.365 109.034 233.945 109.034 233.505V233.49H107.129C106.389 233.49 105.864 233.62 105.554 233.88C105.254 234.13 105.104 234.445 105.104 234.825C105.104 235.215 105.244 235.53 105.524 235.77C105.814 236 106.219 236.115 106.739 236.115ZM112.184 237V229.56H113.324L113.399 230.895C113.639 230.425 113.984 230.055 114.434 229.785C114.884 229.515 115.394 229.38 115.964 229.38C116.844 229.38 117.544 229.65 118.064 230.19C118.594 230.72 118.859 231.54 118.859 232.65V237H117.599V232.785C117.599 231.235 116.959 230.46 115.679 230.46C115.039 230.46 114.504 230.695 114.074 231.165C113.654 231.625 113.444 232.285 113.444 233.145V237H112.184ZM123.708 237C123.028 237 122.493 236.835 122.103 236.505C121.713 236.175 121.518 235.58 121.518 234.72V230.625H120.228V229.56H121.518L121.683 227.775H122.778V229.56H124.968V230.625H122.778V234.72C122.778 235.19 122.873 235.51 123.063 235.68C123.253 235.84 123.588 235.92 124.068 235.92H124.848V237H123.708ZM126.569 237V226.2H127.829V237H126.569ZM130.704 240.3L132.549 236.28H132.114L129.159 229.56H130.524L132.984 235.35L135.594 229.56H136.899L132.024 240.3H130.704ZM142.274 237V226.5H145.724C146.544 226.5 147.219 226.635 147.749 226.905C148.279 227.175 148.669 227.54 148.919 228C149.179 228.46 149.309 228.98 149.309 229.56C149.309 230.13 149.184 230.645 148.934 231.105C148.684 231.565 148.294 231.935 147.764 232.215C147.234 232.485 146.554 232.62 145.724 232.62H143.534V237H142.274ZM143.534 231.555H145.694C146.534 231.555 147.129 231.38 147.479 231.03C147.839 230.67 148.019 230.18 148.019 229.56C148.019 228.93 147.839 228.44 147.479 228.09C147.129 227.73 146.534 227.55 145.694 227.55H143.534V231.555ZM153.836 237.18C153.136 237.18 152.506 237.02 151.946 236.7C151.386 236.38 150.941 235.93 150.611 235.35C150.291 234.76 150.131 234.07 150.131 233.28C150.131 232.49 150.296 231.805 150.626 231.225C150.956 230.635 151.401 230.18 151.961 229.86C152.531 229.54 153.166 229.38 153.866 229.38C154.566 229.38 155.196 229.54 155.756 229.86C156.316 230.18 156.756 230.635 157.076 231.225C157.406 231.805 157.571 232.49 157.571 233.28C157.571 234.07 157.406 234.76 157.076 235.35C156.746 235.93 156.296 236.38 155.726 236.7C155.166 237.02 154.536 237.18 153.836 237.18ZM153.836 236.1C154.266 236.1 154.666 235.995 155.036 235.785C155.406 235.575 155.706 235.26 155.936 234.84C156.166 234.42 156.281 233.9 156.281 233.28C156.281 232.66 156.166 232.14 155.936 231.72C155.716 231.3 155.421 230.985 155.051 230.775C154.681 230.565 154.286 230.46 153.866 230.46C153.436 230.46 153.036 230.565 152.666 230.775C152.296 230.985 151.996 231.3 151.766 231.72C151.536 232.14 151.421 232.66 151.421 233.28C151.421 233.9 151.536 234.42 151.766 234.84C151.996 235.26 152.291 235.575 152.651 235.785C153.021 235.995 153.416 236.1 153.836 236.1ZM162.173 237.18C161.283 237.18 160.543 236.955 159.953 236.505C159.363 236.055 159.018 235.445 158.918 234.675H160.208C160.288 235.065 160.493 235.405 160.823 235.695C161.163 235.975 161.618 236.115 162.188 236.115C162.718 236.115 163.108 236.005 163.358 235.785C163.608 235.555 163.733 235.285 163.733 234.975C163.733 234.525 163.568 234.225 163.238 234.075C162.918 233.925 162.463 233.79 161.873 233.67C161.473 233.59 161.073 233.475 160.673 233.325C160.273 233.175 159.938 232.965 159.668 232.695C159.398 232.415 159.263 232.05 159.263 231.6C159.263 230.95 159.503 230.42 159.983 230.01C160.473 229.59 161.133 229.38 161.963 229.38C162.753 229.38 163.398 229.58 163.898 229.98C164.408 230.37 164.703 230.93 164.783 231.66H163.538C163.488 231.28 163.323 230.985 163.043 230.775C162.773 230.555 162.408 230.445 161.948 230.445C161.498 230.445 161.148 230.54 160.898 230.73C160.658 230.92 160.538 231.17 160.538 231.48C160.538 231.78 160.693 232.015 161.003 232.185C161.323 232.355 161.753 232.5 162.293 232.62C162.753 232.72 163.188 232.845 163.598 232.995C164.018 233.135 164.358 233.35 164.618 233.64C164.888 233.92 165.023 234.33 165.023 234.87C165.033 235.54 164.778 236.095 164.258 236.535C163.748 236.965 163.053 237.18 162.173 237.18ZM169.426 237C168.746 237 168.211 236.835 167.821 236.505C167.431 236.175 167.236 235.58 167.236 234.72V230.625H165.946V229.56H167.236L167.401 227.775H168.496V229.56H170.686V230.625H168.496V234.72C168.496 235.19 168.591 235.51 168.781 235.68C168.971 235.84 169.306 235.92 169.786 235.92H170.566V237H169.426ZM179.647 237.18C178.947 237.18 178.317 237.02 177.757 236.7C177.197 236.38 176.752 235.93 176.422 235.35C176.102 234.76 175.942 234.07 175.942 233.28C175.942 232.49 176.107 231.805 176.437 231.225C176.767 230.635 177.212 230.18 177.772 229.86C178.342 229.54 178.977 229.38 179.677 229.38C180.377 229.38 181.007 229.54 181.567 229.86C182.127 230.18 182.567 230.635 182.887 231.225C183.217 231.805 183.382 232.49 183.382 233.28C183.382 234.07 183.217 234.76 182.887 235.35C182.557 235.93 182.107 236.38 181.537 236.7C180.977 237.02 180.347 237.18 179.647 237.18ZM179.647 236.1C180.077 236.1 180.477 235.995 180.847 235.785C181.217 235.575 181.517 235.26 181.747 234.84C181.977 234.42 182.092 233.9 182.092 233.28C182.092 232.66 181.977 232.14 181.747 231.72C181.527 231.3 181.232 230.985 180.862 230.775C180.492 230.565 180.097 230.46 179.677 230.46C179.247 230.46 178.847 230.565 178.477 230.775C178.107 230.985 177.807 231.3 177.577 231.72C177.347 232.14 177.232 232.66 177.232 233.28C177.232 233.9 177.347 234.42 177.577 234.84C177.807 235.26 178.102 235.575 178.462 235.785C178.832 235.995 179.227 236.1 179.647 236.1ZM185.134 237V229.56H186.274L186.379 230.985C186.609 230.495 186.959 230.105 187.429 229.815C187.899 229.525 188.479 229.38 189.169 229.38V230.7H188.824C188.384 230.7 187.979 230.78 187.609 230.94C187.239 231.09 186.944 231.35 186.724 231.72C186.504 232.09 186.394 232.6 186.394 233.25V237H185.134ZM197.973 237.18C197.203 237.18 196.533 237.04 195.963 236.76C195.393 236.48 194.953 236.09 194.643 235.59C194.333 235.09 194.178 234.51 194.178 233.85H195.498C195.498 234.26 195.593 234.64 195.783 234.99C195.973 235.33 196.248 235.605 196.608 235.815C196.978 236.015 197.433 236.115 197.973 236.115C198.683 236.115 199.233 235.945 199.623 235.605C200.013 235.265 200.208 234.84 200.208 234.33C200.208 233.91 200.118 233.575 199.938 233.325C199.758 233.065 199.513 232.855 199.203 232.695C198.903 232.535 198.553 232.395 198.153 232.275C197.763 232.155 197.353 232.02 196.923 231.87C196.113 231.59 195.513 231.245 195.123 230.835C194.733 230.415 194.538 229.87 194.538 229.2C194.528 228.64 194.658 228.145 194.928 227.715C195.198 227.275 195.578 226.935 196.068 226.695C196.568 226.445 197.158 226.32 197.838 226.32C198.508 226.32 199.088 226.445 199.578 226.695C200.078 226.945 200.463 227.29 200.733 227.73C201.013 228.17 201.158 228.67 201.168 229.23H199.848C199.848 228.94 199.773 228.655 199.623 228.375C199.473 228.085 199.243 227.85 198.933 227.67C198.633 227.49 198.253 227.4 197.793 227.4C197.223 227.39 196.753 227.535 196.383 227.835C196.023 228.135 195.843 228.55 195.843 229.08C195.843 229.53 195.968 229.875 196.218 230.115C196.478 230.355 196.838 230.555 197.298 230.715C197.758 230.865 198.288 231.04 198.888 231.24C199.388 231.42 199.838 231.63 200.238 231.87C200.638 232.11 200.948 232.42 201.168 232.8C201.398 233.18 201.513 233.665 201.513 234.255C201.513 234.755 201.383 235.23 201.123 235.68C200.863 236.12 200.468 236.48 199.938 236.76C199.418 237.04 198.763 237.18 197.973 237.18ZM206.644 237.18C205.934 237.18 205.294 237.02 204.724 236.7C204.164 236.37 203.719 235.915 203.389 235.335C203.069 234.745 202.909 234.06 202.909 233.28C202.909 232.5 203.069 231.82 203.389 231.24C203.719 230.65 204.164 230.195 204.724 229.875C205.294 229.545 205.934 229.38 206.644 229.38C207.524 229.38 208.264 229.61 208.864 230.07C209.474 230.53 209.859 231.145 210.019 231.915H208.729C208.629 231.455 208.384 231.1 207.994 230.85C207.604 230.59 207.149 230.46 206.629 230.46C206.209 230.46 205.814 230.565 205.444 230.775C205.074 230.985 204.774 231.3 204.544 231.72C204.314 232.14 204.199 232.66 204.199 233.28C204.199 233.9 204.314 234.42 204.544 234.84C204.774 235.26 205.074 235.58 205.444 235.8C205.814 236.01 206.209 236.115 206.629 236.115C207.149 236.115 207.604 235.99 207.994 235.74C208.384 235.48 208.629 235.115 208.729 234.645H210.019C209.869 235.395 209.489 236.005 208.879 236.475C208.269 236.945 207.524 237.18 206.644 237.18ZM211.779 237V226.2H213.039V230.835C213.289 230.375 213.644 230.02 214.104 229.77C214.564 229.51 215.064 229.38 215.604 229.38C216.464 229.38 217.154 229.65 217.674 230.19C218.194 230.72 218.454 231.54 218.454 232.65V237H217.209V232.785C217.209 231.235 216.584 230.46 215.334 230.46C214.684 230.46 214.139 230.695 213.699 231.165C213.259 231.625 213.039 232.285 213.039 233.145V237H211.779ZM223.708 237.18C222.998 237.18 222.368 237.02 221.818 236.7C221.268 236.37 220.833 235.915 220.513 235.335C220.203 234.755 220.048 234.07 220.048 233.28C220.048 232.5 220.203 231.82 220.513 231.24C220.823 230.65 221.253 230.195 221.803 229.875C222.363 229.545 223.008 229.38 223.738 229.38C224.458 229.38 225.078 229.545 225.598 229.875C226.128 230.195 226.533 230.62 226.813 231.15C227.093 231.68 227.233 232.25 227.233 232.86C227.233 232.97 227.228 233.08 227.218 233.19C227.218 233.3 227.218 233.425 227.218 233.565H221.293C221.323 234.135 221.453 234.61 221.683 234.99C221.923 235.36 222.218 235.64 222.568 235.83C222.928 236.02 223.308 236.115 223.708 236.115C224.228 236.115 224.663 235.995 225.013 235.755C225.363 235.515 225.618 235.19 225.778 234.78H227.023C226.823 235.47 226.438 236.045 225.868 236.505C225.308 236.955 224.588 237.18 223.708 237.18ZM223.708 230.445C223.108 230.445 222.573 230.63 222.103 231C221.643 231.36 221.378 231.89 221.308 232.59H225.988C225.958 231.92 225.728 231.395 225.298 231.015C224.868 230.635 224.338 230.445 223.708 230.445ZM232.278 237.18C231.538 237.18 230.888 237.01 230.328 236.67C229.778 236.33 229.348 235.865 229.038 235.275C228.738 234.685 228.588 234.015 228.588 233.265C228.588 232.515 228.743 231.85 229.053 231.27C229.363 230.68 229.793 230.22 230.343 229.89C230.893 229.55 231.543 229.38 232.293 229.38C232.903 229.38 233.443 229.505 233.913 229.755C234.383 230.005 234.748 230.355 235.008 230.805V226.2H236.268V237H235.128L235.008 235.77C234.768 236.13 234.423 236.455 233.973 236.745C233.523 237.035 232.958 237.18 232.278 237.18ZM232.413 236.085C232.913 236.085 233.353 235.97 233.733 235.74C234.123 235.5 234.423 235.17 234.633 234.75C234.853 234.33 234.963 233.84 234.963 233.28C234.963 232.72 234.853 232.23 234.633 231.81C234.423 231.39 234.123 231.065 233.733 230.835C233.353 230.595 232.913 230.475 232.413 230.475C231.923 230.475 231.483 230.595 231.093 230.835C230.713 231.065 230.413 231.39 230.193 231.81C229.983 232.23 229.878 232.72 229.878 233.28C229.878 233.84 229.983 234.33 230.193 234.75C230.413 235.17 230.713 235.5 231.093 235.74C231.483 235.97 231.923 236.085 232.413 236.085ZM241.037 237.18C240.157 237.18 239.457 236.915 238.937 236.385C238.417 235.845 238.157 235.02 238.157 233.91V229.56H239.417V233.775C239.417 235.325 240.052 236.1 241.322 236.1C241.972 236.1 242.507 235.87 242.927 235.41C243.357 234.94 243.572 234.275 243.572 233.415V229.56H244.832V237H243.692L243.602 235.665C243.372 236.135 243.027 236.505 242.567 236.775C242.117 237.045 241.607 237.18 241.037 237.18ZM246.906 237V226.2H248.166V237H246.906ZM253.576 237.18C252.866 237.18 252.236 237.02 251.686 236.7C251.136 236.37 250.701 235.915 250.381 235.335C250.071 234.755 249.916 234.07 249.916 233.28C249.916 232.5 250.071 231.82 250.381 231.24C250.691 230.65 251.121 230.195 251.671 229.875C252.231 229.545 252.876 229.38 253.606 229.38C254.326 229.38 254.946 229.545 255.466 229.875C255.996 230.195 256.401 230.62 256.681 231.15C256.961 231.68 257.101 232.25 257.101 232.86C257.101 232.97 257.096 233.08 257.086 233.19C257.086 233.3 257.086 233.425 257.086 233.565H251.161C251.191 234.135 251.321 234.61 251.551 234.99C251.791 235.36 252.086 235.64 252.436 235.83C252.796 236.02 253.176 236.115 253.576 236.115C254.096 236.115 254.531 235.995 254.881 235.755C255.231 235.515 255.486 235.19 255.646 234.78H256.891C256.691 235.47 256.306 236.045 255.736 236.505C255.176 236.955 254.456 237.18 253.576 237.18ZM253.576 230.445C252.976 230.445 252.441 230.63 251.971 231C251.511 231.36 251.246 231.89 251.176 232.59H255.856C255.826 231.92 255.596 231.395 255.166 231.015C254.736 230.635 254.206 230.445 253.576 230.445ZM265.681 237C265.001 237 264.466 236.835 264.076 236.505C263.686 236.175 263.491 235.58 263.491 234.72V230.625H262.201V229.56H263.491L263.656 227.775H264.751V229.56H266.941V230.625H264.751V234.72C264.751 235.19 264.846 235.51 265.036 235.68C265.226 235.84 265.561 235.92 266.041 235.92H266.821V237H265.681ZM271.727 237.18C271.027 237.18 270.397 237.02 269.837 236.7C269.277 236.38 268.832 235.93 268.502 235.35C268.182 234.76 268.022 234.07 268.022 233.28C268.022 232.49 268.187 231.805 268.517 231.225C268.847 230.635 269.292 230.18 269.852 229.86C270.422 229.54 271.057 229.38 271.757 229.38C272.457 229.38 273.087 229.54 273.647 229.86C274.207 230.18 274.647 230.635 274.967 231.225C275.297 231.805 275.462 232.49 275.462 233.28C275.462 234.07 275.297 234.76 274.967 235.35C274.637 235.93 274.187 236.38 273.617 236.7C273.057 237.02 272.427 237.18 271.727 237.18ZM271.727 236.1C272.157 236.1 272.557 235.995 272.927 235.785C273.297 235.575 273.597 235.26 273.827 234.84C274.057 234.42 274.172 233.9 274.172 233.28C274.172 232.66 274.057 232.14 273.827 231.72C273.607 231.3 273.312 230.985 272.942 230.775C272.572 230.565 272.177 230.46 271.757 230.46C271.327 230.46 270.927 230.565 270.557 230.775C270.187 230.985 269.887 231.3 269.657 231.72C269.427 232.14 269.312 232.66 269.312 233.28C269.312 233.9 269.427 234.42 269.657 234.84C269.887 235.26 270.182 235.575 270.542 235.785C270.912 235.995 271.307 236.1 271.727 236.1Z" fill="black"/>
</g>
<path d="M60.9177 276.006L59.3104 274.1C59.2564 274.036 59.183 274 59.1066 274C59.0301 274 58.9568 274.036 58.9028 274.1L52.1142 282.134C52.0602 282.198 51.9868 282.234 51.9104 282.234C51.8339 282.234 51.7606 282.198 51.7066 282.134L50.0992 280.228C50.0452 280.164 49.9719 280.128 49.8954 280.128C49.819 280.128 49.7456 280.164 49.6916 280.228L48.0843 282.134C47.9719 282.267 47.9719 282.482 48.0843 282.615L51.7066 286.9C51.7606 286.964 51.8339 287 51.9104 287C51.9868 287 52.0602 286.964 52.1142 286.9L60.9177 276.483C61.0274 276.351 61.0274 276.139 60.9177 276.006Z" fill="#4E2D92"/>
<path d="M80.11 286V275.5H83.5C84.32 275.5 84.99 275.635 85.51 275.905C86.03 276.175 86.415 276.545 86.665 277.015C86.915 277.485 87.04 278.005 87.04 278.575C87.04 279.235 86.86 279.83 86.5 280.36C86.15 280.89 85.6 281.265 84.85 281.485L87.145 286H85.66L83.53 281.665H83.44H81.37V286H80.11ZM81.37 280.675H83.41C84.22 280.675 84.81 280.48 85.18 280.09C85.55 279.7 85.735 279.2 85.735 278.59C85.735 277.97 85.55 277.48 85.18 277.12C84.82 276.75 84.225 276.565 83.395 276.565H81.37V280.675ZM91.8175 286.18C91.1075 286.18 90.4775 286.02 89.9275 285.7C89.3775 285.37 88.9425 284.915 88.6225 284.335C88.3125 283.755 88.1575 283.07 88.1575 282.28C88.1575 281.5 88.3125 280.82 88.6225 280.24C88.9325 279.65 89.3625 279.195 89.9125 278.875C90.4725 278.545 91.1175 278.38 91.8475 278.38C92.5675 278.38 93.1875 278.545 93.7075 278.875C94.2375 279.195 94.6425 279.62 94.9225 280.15C95.2025 280.68 95.3425 281.25 95.3425 281.86C95.3425 281.97 95.3375 282.08 95.3275 282.19C95.3275 282.3 95.3275 282.425 95.3275 282.565H89.4025C89.4325 283.135 89.5625 283.61 89.7925 283.99C90.0325 284.36 90.3275 284.64 90.6775 284.83C91.0375 285.02 91.4175 285.115 91.8175 285.115C92.3375 285.115 92.7725 284.995 93.1225 284.755C93.4725 284.515 93.7275 284.19 93.8875 283.78H95.1325C94.9325 284.47 94.5475 285.045 93.9775 285.505C93.4175 285.955 92.6975 286.18 91.8175 286.18ZM91.8175 279.445C91.2175 279.445 90.6825 279.63 90.2125 280C89.7525 280.36 89.4875 280.89 89.4175 281.59H94.0975C94.0675 280.92 93.8375 280.395 93.4075 280.015C92.9775 279.635 92.4475 279.445 91.8175 279.445ZM99.4875 286.18C98.8675 286.18 98.3525 286.075 97.9425 285.865C97.5325 285.655 97.2275 285.375 97.0275 285.025C96.8275 284.675 96.7275 284.295 96.7275 283.885C96.7275 283.125 97.0175 282.54 97.5975 282.13C98.1775 281.72 98.9675 281.515 99.9675 281.515H101.978V281.425C101.978 280.775 101.808 280.285 101.468 279.955C101.128 279.615 100.673 279.445 100.103 279.445C99.6125 279.445 99.1875 279.57 98.8275 279.82C98.4775 280.06 98.2575 280.415 98.1675 280.885H96.8775C96.9275 280.345 97.1075 279.89 97.4175 279.52C97.7375 279.15 98.1325 278.87 98.6025 278.68C99.0725 278.48 99.5725 278.38 100.103 278.38C101.143 278.38 101.923 278.66 102.443 279.22C102.973 279.77 103.238 280.505 103.238 281.425V286H102.113L102.038 284.665C101.828 285.085 101.518 285.445 101.108 285.745C100.708 286.035 100.168 286.18 99.4875 286.18ZM99.6825 285.115C100.163 285.115 100.573 284.99 100.913 284.74C101.263 284.49 101.528 284.165 101.708 283.765C101.888 283.365 101.978 282.945 101.978 282.505V282.49H100.073C99.3325 282.49 98.8075 282.62 98.4975 282.88C98.1975 283.13 98.0475 283.445 98.0475 283.825C98.0475 284.215 98.1875 284.53 98.4675 284.77C98.7575 285 99.1625 285.115 99.6825 285.115ZM108.503 286.18C107.763 286.18 107.113 286.01 106.553 285.67C106.003 285.33 105.573 284.865 105.263 284.275C104.963 283.685 104.813 283.015 104.813 282.265C104.813 281.515 104.968 280.85 105.278 280.27C105.588 279.68 106.018 279.22 106.568 278.89C107.118 278.55 107.768 278.38 108.518 278.38C109.128 278.38 109.668 278.505 110.138 278.755C110.608 279.005 110.973 279.355 111.233 279.805V275.2H112.493V286H111.353L111.233 284.77C110.993 285.13 110.648 285.455 110.198 285.745C109.748 286.035 109.183 286.18 108.503 286.18ZM108.638 285.085C109.138 285.085 109.578 284.97 109.958 284.74C110.348 284.5 110.648 284.17 110.858 283.75C111.078 283.33 111.188 282.84 111.188 282.28C111.188 281.72 111.078 281.23 110.858 280.81C110.648 280.39 110.348 280.065 109.958 279.835C109.578 279.595 109.138 279.475 108.638 279.475C108.148 279.475 107.708 279.595 107.318 279.835C106.938 280.065 106.638 280.39 106.418 280.81C106.208 281.23 106.103 281.72 106.103 282.28C106.103 282.84 106.208 283.33 106.418 283.75C106.638 284.17 106.938 284.5 107.318 284.74C107.708 284.97 108.148 285.085 108.638 285.085ZM115.357 289.3L117.202 285.28H116.767L113.812 278.56H115.177L117.637 284.35L120.247 278.56H121.552L116.677 289.3H115.357ZM130.271 286.18C129.501 286.18 128.831 286.04 128.261 285.76C127.691 285.48 127.251 285.09 126.941 284.59C126.631 284.09 126.476 283.51 126.476 282.85H127.796C127.796 283.26 127.891 283.64 128.081 283.99C128.271 284.33 128.546 284.605 128.906 284.815C129.276 285.015 129.731 285.115 130.271 285.115C130.981 285.115 131.531 284.945 131.921 284.605C132.311 284.265 132.506 283.84 132.506 283.33C132.506 282.91 132.416 282.575 132.236 282.325C132.056 282.065 131.811 281.855 131.501 281.695C131.201 281.535 130.851 281.395 130.451 281.275C130.061 281.155 129.651 281.02 129.221 280.87C128.411 280.59 127.811 280.245 127.421 279.835C127.031 279.415 126.836 278.87 126.836 278.2C126.826 277.64 126.956 277.145 127.226 276.715C127.496 276.275 127.876 275.935 128.366 275.695C128.866 275.445 129.456 275.32 130.136 275.32C130.806 275.32 131.386 275.445 131.876 275.695C132.376 275.945 132.761 276.29 133.031 276.73C133.311 277.17 133.456 277.67 133.466 278.23H132.146C132.146 277.94 132.071 277.655 131.921 277.375C131.771 277.085 131.541 276.85 131.231 276.67C130.931 276.49 130.551 276.4 130.091 276.4C129.521 276.39 129.051 276.535 128.681 276.835C128.321 277.135 128.141 277.55 128.141 278.08C128.141 278.53 128.266 278.875 128.516 279.115C128.776 279.355 129.136 279.555 129.596 279.715C130.056 279.865 130.586 280.04 131.186 280.24C131.686 280.42 132.136 280.63 132.536 280.87C132.936 281.11 133.246 281.42 133.466 281.8C133.696 282.18 133.811 282.665 133.811 283.255C133.811 283.755 133.681 284.23 133.421 284.68C133.161 285.12 132.766 285.48 132.236 285.76C131.716 286.04 131.061 286.18 130.271 286.18ZM135.598 286V275.5H142.093V276.535H136.858V280.195H141.643V281.215H136.858V284.965H142.093V286H135.598ZM148.835 286.18C147.805 286.18 146.9 285.955 146.12 285.505C145.35 285.045 144.745 284.405 144.305 283.585C143.875 282.765 143.66 281.82 143.66 280.75C143.66 279.68 143.875 278.74 144.305 277.93C144.745 277.11 145.35 276.47 146.12 276.01C146.9 275.55 147.805 275.32 148.835 275.32C149.875 275.32 150.78 275.55 151.55 276.01C152.33 276.47 152.935 277.11 153.365 277.93C153.795 278.74 154.01 279.68 154.01 280.75C154.01 281.82 153.795 282.765 153.365 283.585C152.935 284.405 152.33 285.045 151.55 285.505C150.78 285.955 149.875 286.18 148.835 286.18ZM148.835 285.07C149.605 285.07 150.28 284.9 150.86 284.56C151.45 284.21 151.905 283.715 152.225 283.075C152.555 282.425 152.72 281.65 152.72 280.75C152.72 279.85 152.555 279.08 152.225 278.44C151.905 277.8 151.45 277.31 150.86 276.97C150.28 276.62 149.605 276.445 148.835 276.445C148.065 276.445 147.385 276.62 146.795 276.97C146.215 277.31 145.76 277.8 145.43 278.44C145.11 279.08 144.95 279.85 144.95 280.75C144.95 281.65 145.11 282.425 145.43 283.075C145.76 283.715 146.215 284.21 146.795 284.56C147.385 284.9 148.065 285.07 148.835 285.07ZM164.568 286.18C163.538 286.18 162.633 285.955 161.853 285.505C161.083 285.045 160.478 284.405 160.038 283.585C159.608 282.765 159.393 281.82 159.393 280.75C159.393 279.68 159.608 278.74 160.038 277.93C160.478 277.11 161.083 276.47 161.853 276.01C162.633 275.55 163.538 275.32 164.568 275.32C165.608 275.32 166.513 275.55 167.283 276.01C168.063 276.47 168.668 277.11 169.098 277.93C169.528 278.74 169.743 279.68 169.743 280.75C169.743 281.82 169.528 282.765 169.098 283.585C168.668 284.405 168.063 285.045 167.283 285.505C166.513 285.955 165.608 286.18 164.568 286.18ZM164.568 285.07C165.338 285.07 166.013 284.9 166.593 284.56C167.183 284.21 167.638 283.715 167.958 283.075C168.288 282.425 168.453 281.65 168.453 280.75C168.453 279.85 168.288 279.08 167.958 278.44C167.638 277.8 167.183 277.31 166.593 276.97C166.013 276.62 165.338 276.445 164.568 276.445C163.798 276.445 163.118 276.62 162.528 276.97C161.948 277.31 161.493 277.8 161.163 278.44C160.843 279.08 160.683 279.85 160.683 280.75C160.683 281.65 160.843 282.425 161.163 283.075C161.493 283.715 161.948 284.21 162.528 284.56C163.118 284.9 163.798 285.07 164.568 285.07ZM171.485 289.3V278.56H172.625L172.745 279.79C172.985 279.43 173.325 279.105 173.765 278.815C174.215 278.525 174.785 278.38 175.475 278.38C176.215 278.38 176.86 278.55 177.41 278.89C177.96 279.23 178.385 279.695 178.685 280.285C178.995 280.875 179.15 281.545 179.15 282.295C179.15 283.045 178.995 283.715 178.685 284.305C178.385 284.885 177.955 285.345 177.395 285.685C176.845 286.015 176.2 286.18 175.46 286.18C174.85 286.18 174.305 286.055 173.825 285.805C173.355 285.555 172.995 285.205 172.745 284.755V289.3H171.485ZM175.325 285.085C175.825 285.085 176.265 284.97 176.645 284.74C177.025 284.5 177.325 284.17 177.545 283.75C177.765 283.33 177.875 282.84 177.875 282.28C177.875 281.72 177.765 281.23 177.545 280.81C177.325 280.39 177.025 280.065 176.645 279.835C176.265 279.595 175.825 279.475 175.325 279.475C174.825 279.475 174.385 279.595 174.005 279.835C173.625 280.065 173.325 280.39 173.105 280.81C172.885 281.23 172.775 281.72 172.775 282.28C172.775 282.84 172.885 283.33 173.105 283.75C173.325 284.17 173.625 284.5 174.005 284.74C174.385 284.97 174.825 285.085 175.325 285.085ZM183.551 286C182.871 286 182.336 285.835 181.946 285.505C181.556 285.175 181.361 284.58 181.361 283.72V279.625H180.071V278.56H181.361L181.526 276.775H182.621V278.56H184.811V279.625H182.621V283.72C182.621 284.19 182.716 284.51 182.906 284.68C183.096 284.84 183.431 284.92 183.911 284.92H184.691V286H183.551ZM187.177 276.91C186.927 276.91 186.717 276.83 186.547 276.67C186.387 276.5 186.307 276.29 186.307 276.04C186.307 275.8 186.387 275.6 186.547 275.44C186.717 275.28 186.927 275.2 187.177 275.2C187.417 275.2 187.622 275.28 187.792 275.44C187.962 275.6 188.047 275.8 188.047 276.04C188.047 276.29 187.962 276.5 187.792 276.67C187.622 276.83 187.417 276.91 187.177 276.91ZM186.547 286V278.56H187.807V286H186.547ZM190.001 286V278.56H191.141L191.231 279.64C191.471 279.24 191.791 278.93 192.191 278.71C192.591 278.49 193.041 278.38 193.541 278.38C194.131 278.38 194.636 278.5 195.056 278.74C195.486 278.98 195.816 279.345 196.046 279.835C196.306 279.385 196.661 279.03 197.111 278.77C197.571 278.51 198.066 278.38 198.596 278.38C199.486 278.38 200.196 278.65 200.726 279.19C201.256 279.72 201.521 280.54 201.521 281.65V286H200.276V281.785C200.276 281.015 200.121 280.435 199.811 280.045C199.501 279.655 199.056 279.46 198.476 279.46C197.876 279.46 197.376 279.695 196.976 280.165C196.586 280.625 196.391 281.285 196.391 282.145V286H195.131V281.785C195.131 281.015 194.976 280.435 194.666 280.045C194.356 279.655 193.911 279.46 193.331 279.46C192.741 279.46 192.246 279.695 191.846 280.165C191.456 280.625 191.261 281.285 191.261 282.145V286H190.001ZM204.184 276.91C203.934 276.91 203.724 276.83 203.554 276.67C203.394 276.5 203.314 276.29 203.314 276.04C203.314 275.8 203.394 275.6 203.554 275.44C203.724 275.28 203.934 275.2 204.184 275.2C204.424 275.2 204.629 275.28 204.799 275.44C204.969 275.6 205.054 275.8 205.054 276.04C205.054 276.29 204.969 276.5 204.799 276.67C204.629 276.83 204.424 276.91 204.184 276.91ZM203.554 286V278.56H204.814V286H203.554ZM206.498 286V284.965L210.638 279.61H206.573V278.56H212.048V279.595L207.908 284.95H212.123V286H206.498ZM217.135 286.18C216.425 286.18 215.795 286.02 215.245 285.7C214.695 285.37 214.26 284.915 213.94 284.335C213.63 283.755 213.475 283.07 213.475 282.28C213.475 281.5 213.63 280.82 213.94 280.24C214.25 279.65 214.68 279.195 215.23 278.875C215.79 278.545 216.435 278.38 217.165 278.38C217.885 278.38 218.505 278.545 219.025 278.875C219.555 279.195 219.96 279.62 220.24 280.15C220.52 280.68 220.66 281.25 220.66 281.86C220.66 281.97 220.655 282.08 220.645 282.19C220.645 282.3 220.645 282.425 220.645 282.565H214.72C214.75 283.135 214.88 283.61 215.11 283.99C215.35 284.36 215.645 284.64 215.995 284.83C216.355 285.02 216.735 285.115 217.135 285.115C217.655 285.115 218.09 284.995 218.44 284.755C218.79 284.515 219.045 284.19 219.205 283.78H220.45C220.25 284.47 219.865 285.045 219.295 285.505C218.735 285.955 218.015 286.18 217.135 286.18ZM217.135 279.445C216.535 279.445 216 279.63 215.53 280C215.07 280.36 214.805 280.89 214.735 281.59H219.415C219.385 280.92 219.155 280.395 218.725 280.015C218.295 279.635 217.765 279.445 217.135 279.445ZM225.705 286.18C224.965 286.18 224.315 286.01 223.755 285.67C223.205 285.33 222.775 284.865 222.465 284.275C222.165 283.685 222.015 283.015 222.015 282.265C222.015 281.515 222.17 280.85 222.48 280.27C222.79 279.68 223.22 279.22 223.77 278.89C224.32 278.55 224.97 278.38 225.72 278.38C226.33 278.38 226.87 278.505 227.34 278.755C227.81 279.005 228.175 279.355 228.435 279.805V275.2H229.695V286H228.555L228.435 284.77C228.195 285.13 227.85 285.455 227.4 285.745C226.95 286.035 226.385 286.18 225.705 286.18ZM225.84 285.085C226.34 285.085 226.78 284.97 227.16 284.74C227.55 284.5 227.85 284.17 228.06 283.75C228.28 283.33 228.39 282.84 228.39 282.28C228.39 281.72 228.28 281.23 228.06 280.81C227.85 280.39 227.55 280.065 227.16 279.835C226.78 279.595 226.34 279.475 225.84 279.475C225.35 279.475 224.91 279.595 224.52 279.835C224.14 280.065 223.84 280.39 223.62 280.81C223.41 281.23 223.305 281.72 223.305 282.28C223.305 282.84 223.41 283.33 223.62 283.75C223.84 284.17 224.14 284.5 224.52 284.74C224.91 284.97 225.35 285.085 225.84 285.085ZM240.399 286.18C239.369 286.18 238.479 285.955 237.729 285.505C236.989 285.045 236.414 284.41 236.004 283.6C235.594 282.78 235.389 281.83 235.389 280.75C235.389 279.68 235.594 278.74 236.004 277.93C236.414 277.11 236.989 276.47 237.729 276.01C238.479 275.55 239.369 275.32 240.399 275.32C241.599 275.32 242.574 275.61 243.324 276.19C244.084 276.76 244.569 277.56 244.779 278.59H243.384C243.224 277.94 242.894 277.42 242.394 277.03C241.904 276.63 241.239 276.43 240.399 276.43C239.649 276.43 238.994 276.605 238.434 276.955C237.874 277.295 237.439 277.79 237.129 278.44C236.829 279.08 236.679 279.85 236.679 280.75C236.679 281.65 236.829 282.425 237.129 283.075C237.439 283.715 237.874 284.21 238.434 284.56C238.994 284.9 239.649 285.07 240.399 285.07C241.239 285.07 241.904 284.88 242.394 284.5C242.894 284.11 243.224 283.595 243.384 282.955H244.779C244.569 283.965 244.084 284.755 243.324 285.325C242.574 285.895 241.599 286.18 240.399 286.18ZM248.989 286.18C248.369 286.18 247.854 286.075 247.444 285.865C247.034 285.655 246.729 285.375 246.529 285.025C246.329 284.675 246.229 284.295 246.229 283.885C246.229 283.125 246.519 282.54 247.099 282.13C247.679 281.72 248.469 281.515 249.469 281.515H251.479V281.425C251.479 280.775 251.309 280.285 250.969 279.955C250.629 279.615 250.174 279.445 249.604 279.445C249.114 279.445 248.689 279.57 248.329 279.82C247.979 280.06 247.759 280.415 247.669 280.885H246.379C246.429 280.345 246.609 279.89 246.919 279.52C247.239 279.15 247.634 278.87 248.104 278.68C248.574 278.48 249.074 278.38 249.604 278.38C250.644 278.38 251.424 278.66 251.944 279.22C252.474 279.77 252.739 280.505 252.739 281.425V286H251.614L251.539 284.665C251.329 285.085 251.019 285.445 250.609 285.745C250.209 286.035 249.669 286.18 248.989 286.18ZM249.184 285.115C249.664 285.115 250.074 284.99 250.414 284.74C250.764 284.49 251.029 284.165 251.209 283.765C251.389 283.365 251.479 282.945 251.479 282.505V282.49H249.574C248.834 282.49 248.309 282.62 247.999 282.88C247.699 283.13 247.549 283.445 247.549 283.825C247.549 284.215 247.689 284.53 247.969 284.77C248.259 285 248.664 285.115 249.184 285.115ZM254.63 289.3V278.56H255.77L255.89 279.79C256.13 279.43 256.47 279.105 256.91 278.815C257.36 278.525 257.93 278.38 258.62 278.38C259.36 278.38 260.005 278.55 260.555 278.89C261.105 279.23 261.53 279.695 261.83 280.285C262.14 280.875 262.295 281.545 262.295 282.295C262.295 283.045 262.14 283.715 261.83 284.305C261.53 284.885 261.1 285.345 260.54 285.685C259.99 286.015 259.345 286.18 258.605 286.18C257.995 286.18 257.45 286.055 256.97 285.805C256.5 285.555 256.14 285.205 255.89 284.755V289.3H254.63ZM258.47 285.085C258.97 285.085 259.41 284.97 259.79 284.74C260.17 284.5 260.47 284.17 260.69 283.75C260.91 283.33 261.02 282.84 261.02 282.28C261.02 281.72 260.91 281.23 260.69 280.81C260.47 280.39 260.17 280.065 259.79 279.835C259.41 279.595 258.97 279.475 258.47 279.475C257.97 279.475 257.53 279.595 257.15 279.835C256.77 280.065 256.47 280.39 256.25 280.81C256.03 281.23 255.92 281.72 255.92 282.28C255.92 282.84 256.03 283.33 256.25 283.75C256.47 284.17 256.77 284.5 257.15 284.74C257.53 284.97 257.97 285.085 258.47 285.085ZM266.696 286C266.016 286 265.481 285.835 265.091 285.505C264.701 285.175 264.506 284.58 264.506 283.72V279.625H263.216V278.56H264.506L264.671 276.775H265.766V278.56H267.956V279.625H265.766V283.72C265.766 284.19 265.861 284.51 266.051 284.68C266.241 284.84 266.576 284.92 267.056 284.92H267.836V286H266.696ZM270.321 276.91C270.071 276.91 269.861 276.83 269.691 276.67C269.531 276.5 269.451 276.29 269.451 276.04C269.451 275.8 269.531 275.6 269.691 275.44C269.861 275.28 270.071 275.2 270.321 275.2C270.561 275.2 270.766 275.28 270.936 275.44C271.106 275.6 271.191 275.8 271.191 276.04C271.191 276.29 271.106 276.5 270.936 276.67C270.766 276.83 270.561 276.91 270.321 276.91ZM269.691 286V278.56H270.951V286H269.691ZM276.535 286.18C275.835 286.18 275.205 286.02 274.645 285.7C274.085 285.38 273.64 284.93 273.31 284.35C272.99 283.76 272.83 283.07 272.83 282.28C272.83 281.49 272.995 280.805 273.325 280.225C273.655 279.635 274.1 279.18 274.66 278.86C275.23 278.54 275.865 278.38 276.565 278.38C277.265 278.38 277.895 278.54 278.455 278.86C279.015 279.18 279.455 279.635 279.775 280.225C280.105 280.805 280.27 281.49 280.27 282.28C280.27 283.07 280.105 283.76 279.775 284.35C279.445 284.93 278.995 285.38 278.425 285.7C277.865 286.02 277.235 286.18 276.535 286.18ZM276.535 285.1C276.965 285.1 277.365 284.995 277.735 284.785C278.105 284.575 278.405 284.26 278.635 283.84C278.865 283.42 278.98 282.9 278.98 282.28C278.98 281.66 278.865 281.14 278.635 280.72C278.415 280.3 278.12 279.985 277.75 279.775C277.38 279.565 276.985 279.46 276.565 279.46C276.135 279.46 275.735 279.565 275.365 279.775C274.995 279.985 274.695 280.3 274.465 280.72C274.235 281.14 274.12 281.66 274.12 282.28C274.12 282.9 274.235 283.42 274.465 283.84C274.695 284.26 274.99 284.575 275.35 284.785C275.72 284.995 276.115 285.1 276.535 285.1ZM282.022 286V278.56H283.162L283.237 279.895C283.477 279.425 283.822 279.055 284.272 278.785C284.722 278.515 285.232 278.38 285.802 278.38C286.682 278.38 287.382 278.65 287.902 279.19C288.432 279.72 288.697 280.54 288.697 281.65V286H287.437V281.785C287.437 280.235 286.797 279.46 285.517 279.46C284.877 279.46 284.342 279.695 283.912 280.165C283.492 280.625 283.282 281.285 283.282 282.145V286H282.022ZM293.456 286.18C292.566 286.18 291.826 285.955 291.236 285.505C290.646 285.055 290.301 284.445 290.201 283.675H291.491C291.571 284.065 291.776 284.405 292.106 284.695C292.446 284.975 292.901 285.115 293.471 285.115C294.001 285.115 294.391 285.005 294.641 284.785C294.891 284.555 295.016 284.285 295.016 283.975C295.016 283.525 294.851 283.225 294.521 283.075C294.201 282.925 293.746 282.79 293.156 282.67C292.756 282.59 292.356 282.475 291.956 282.325C291.556 282.175 291.221 281.965 290.951 281.695C290.681 281.415 290.546 281.05 290.546 280.6C290.546 279.95 290.786 279.42 291.266 279.01C291.756 278.59 292.416 278.38 293.246 278.38C294.036 278.38 294.681 278.58 295.181 278.98C295.691 279.37 295.986 279.93 296.066 280.66H294.821C294.771 280.28 294.606 279.985 294.326 279.775C294.056 279.555 293.691 279.445 293.231 279.445C292.781 279.445 292.431 279.54 292.181 279.73C291.941 279.92 291.821 280.17 291.821 280.48C291.821 280.78 291.976 281.015 292.286 281.185C292.606 281.355 293.036 281.5 293.576 281.62C294.036 281.72 294.471 281.845 294.881 281.995C295.301 282.135 295.641 282.35 295.901 282.64C296.171 282.92 296.306 283.33 296.306 283.87C296.316 284.54 296.061 285.095 295.541 285.535C295.031 285.965 294.336 286.18 293.456 286.18Z" fill="black"/>
<defs>
<filter id="filter0_d_0_1" x="-24" y="-2" width="429" height="482" filterUnits="userSpaceOnUse" color-interpolation-filters="sRGB">
<feFlood flood-opacity="0" result="BackgroundImageFix"/>
<feColorMatrix in="SourceAlpha" type="matrix" values="0 0 0 0 0 0 0 0 0 0 0 0 0 0 0 0 0 0 127 0" result="hardAlpha"/>
<feOffset dy="22"/>
<feGaussianBlur stdDeviation="12"/>
<feColorMatrix type="matrix" values="0 0 0 0 0.83455 0 0 0 0 0.812921 0 0 0 0 0.693959 0 0 0 0.331184 0"/>
<feBlend mode="normal" in2="BackgroundImageFix" result="effect1_dropShadow_0_1"/>
<feBlend mode="normal" in="SourceGraphic" in2="effect1_dropShadow_0_1" result="shape"/>
</filter>
<linearGradient id="paint0_linear_0_1" x1="336.42" y1="322" x2="318.435" y2="422.791" gradientUnits="userSpaceOnUse">
<stop stop-color="#693283"/>
<stop offset="1" stop-color="#323283"/>
</linearGradient>
<clipPath id="clip0_0_1">
<rect width="291.42" height="52" fill="white" transform="translate(45 322)"/>
</clipPath>
<clipPath id="clip1_0_1">
<rect width="314" height="20" fill="white" transform="translate(48 142)"/>
</clipPath>
<clipPath id="clip2_0_1">
<rect width="254" height="20" fill="white" transform="translate(48 222)"/>
</clipPath>
</defs>
</svg>
